<svg width="20" height="20" viewBox="0 0 20 20" fill="none" xmlns="http://www.w3.org/2000/svg">
<path d="M3.94531 1.60156H2.77344C2.12621 1.60156 1.60156 2.12621 1.60156 2.77344H5.11719C5.11719 2.12621 4.59254 1.60156 3.94531 1.60156Z" fill="#9AA4B2"/>
<path d="M17.8516 3.94531H13.938L13.5574 2.80352C13.3177 2.08457 12.6475 1.60156 11.8897 1.60156H8.11027C7.3525 1.60156 6.6823 2.08457 6.44266 2.80352L6.06203 3.94531H2.14844C0.963789 3.94531 0 4.9091 0 6.09375V16.25C0 17.4346 0.963789 18.3984 2.14844 18.3984H17.8516C19.0362 18.3984 20 17.4346 20 16.25V6.09375C20 4.9091 19.0362 3.94531 17.8516 3.94531ZM1.99219 6.09375C1.99219 5.77016 2.25453 5.50781 2.57812 5.50781H3.75C4.07359 5.50781 4.33594 5.77016 4.33594 6.09375C4.33594 6.41734 4.07359 6.67969 3.75 6.67969H2.57812C2.25453 6.67969 1.99219 6.41734 1.99219 6.09375ZM10 16.4453C6.87684 16.4453 4.33594 13.9044 4.33594 10.7812C4.33594 7.65809 6.87684 5.11719 10 5.11719C13.1232 5.11719 15.6641 7.65809 15.6641 10.7812C15.6641 13.9044 13.1232 16.4453 10 16.4453ZM17.0312 6.67969C16.7077 6.67969 16.4453 6.41734 16.4453 6.09375C16.4453 5.77016 16.7077 5.50781 17.0312 5.50781C17.3548 5.50781 17.6172 5.77016 17.6172 6.09375C17.6172 6.41734 17.3548 6.67969 17.0312 6.67969Z" fill="#9AA4B2"/>
<path d="M10 6.28906C7.52301 6.28906 5.50781 8.30426 5.50781 10.7812C5.50781 13.2582 7.52301 15.2734 10 15.2734C12.477 15.2734 14.4922 13.2582 14.4922 10.7812C14.4922 8.30426 12.477 6.28906 10 6.28906ZM10 13.9062C8.27688 13.9062 6.875 12.5044 6.875 10.7812C6.875 9.05813 8.27688 7.65625 10 7.65625C11.7231 7.65625 13.125 9.05813 13.125 10.7812C13.125 12.5044 11.7231 13.9062 10 13.9062Z" fill="#9AA4B2"/>
<path d="M10 12.7344C11.0787 12.7344 11.9531 11.8599 11.9531 10.7812C11.9531 9.70257 11.0787 8.82812 10 8.82812C8.92132 8.82812 8.04688 9.70257 8.04688 10.7812C8.04688 11.8599 8.92132 12.7344 10 12.7344Z" fill="#9AA4B2"/>
</svg>
