<svg width="20" height="20" viewBox="0 0 20 20" fill="none" xmlns="http://www.w3.org/2000/svg">
<g clip-path="url(#clip0_71_680)">
<path d="M10 9.41406C9.67697 9.41406 9.41406 9.67697 9.41406 10C9.41406 10.323 9.67697 10.5859 10 10.5859C10.323 10.5859 10.5859 10.323 10.5859 10C10.5859 9.67697 10.323 9.41406 10 9.41406Z" fill="#5621D2"/>
<path d="M14.4949 16.1523C14.9532 16.6101 15.6946 16.6101 16.1523 16.1523C16.6106 15.6941 16.6101 14.9527 16.1523 14.4949L14.1429 12.486C13.4789 11.8219 13.1133 10.939 13.1133 10C13.1133 9.06097 13.4789 8.1781 14.1429 7.51404L16.1523 5.50507C16.6106 5.04684 16.6101 4.30542 16.1523 3.84766C15.6941 3.38989 14.9532 3.38989 14.4949 3.84766L12.486 5.85709C11.8219 6.52115 10.939 6.88675 10 6.88675C9.06098 6.88675 8.1781 6.52115 7.51404 5.85709L5.50507 3.84766C5.04685 3.38989 4.30542 3.38989 3.84766 3.84766C3.38944 4.30588 3.3899 5.0473 3.84766 5.50507L5.85709 7.51404C6.52115 8.1781 6.88675 9.06097 6.88675 10C6.88675 10.939 6.52115 11.8219 5.85709 12.486L3.84766 14.4949C3.3899 14.9532 3.3899 15.6946 3.84766 16.1523C4.30588 16.6101 5.04685 16.6101 5.50507 16.1523L7.51404 14.1429C8.1781 13.4789 9.06098 13.1133 10 13.1133C10.939 13.1133 11.8219 13.4789 12.486 14.1429L14.4949 16.1523ZM10 11.7578C9.03092 11.7578 8.24219 10.9691 8.24219 10C8.24219 9.03091 9.03092 8.24219 10 8.24219C10.9691 8.24219 11.7578 9.03091 11.7578 10C11.7578 10.9691 10.9691 11.7578 10 11.7578Z" fill="#5621D2"/>
<path d="M13.6661 3.0191C14.5821 2.10388 16.0632 2.1019 16.9804 3.0188C17.8969 3.93478 17.8981 5.41687 16.9809 6.33362L15.1746 8.1398C15.4114 8.18207 15.6531 8.20312 15.8984 8.20312C18.1601 8.20312 20 6.36322 20 4.10156C20 1.8399 18.1601 0 15.8984 0C13.6368 0 11.7969 1.8399 11.7969 4.10156C11.7969 4.34692 11.8179 4.58862 11.8602 4.82574L13.6661 3.0191Z" fill="#5621D2"/>
<path d="M15.8984 11.7969C15.6531 11.7969 15.4109 11.8179 15.1743 11.8602L16.9809 13.6661C17.8973 14.5824 17.8976 16.0645 16.9809 16.9809C16.0649 17.8969 14.5831 17.8973 13.6668 16.9812L11.8602 15.1746C11.8179 15.4117 11.7969 15.6531 11.7969 15.8984C11.7969 18.1601 13.6368 20 15.8984 20C18.1601 20 20 18.1601 20 15.8984C20 13.6368 18.1601 11.7969 15.8984 11.7969Z" fill="#5621D2"/>
<path d="M4.10156 8.20312C4.34692 8.20312 4.58908 8.18207 4.82574 8.1398L3.0191 6.33392C2.10266 5.41763 2.10236 3.93555 3.0191 3.0191C3.93509 2.10312 5.41687 2.10266 6.33316 3.0188L8.1398 4.82544C8.18207 4.58832 8.20312 4.34692 8.20312 4.10156C8.20312 1.8399 6.36322 0 4.10156 0C1.8399 0 0 1.8399 0 4.10156C0 6.36322 1.8399 8.20312 4.10156 8.20312Z" fill="#5621D2"/>
<path d="M6.33392 16.9809C5.41794 17.8961 3.93677 17.8981 3.01956 16.9812C2.10541 16.0675 2.10541 14.5808 3.0188 13.6668L4.82574 11.8602C4.58908 11.8179 4.34692 11.7969 4.10156 11.7969C1.8399 11.7969 0 13.6368 0 15.8984C0 18.1601 1.8399 20 4.10156 20C6.36322 20 8.20312 18.1601 8.20312 15.8984C8.20312 15.6531 8.18207 15.4114 8.1398 15.1743L6.33392 16.9809Z" fill="#5621D2"/>
</g>
<defs>
<clipPath id="clip0_71_680">
<rect width="20" height="20" fill="white"/>
</clipPath>
</defs>
</svg>
