<svg width="20" height="20" viewBox="0 0 484 307" fill="none" xmlns="http://www.w3.org/2000/svg" preserveAspectRatio="xMidYMid meet">
<g transform="translate(0.000000,307.000000) scale(0.100000,-0.100000)" fill="#5621D2" stroke="none">
<path d="M404 2759 c-74 -28 -128 -79 -166 -157 l-33 -66 -3 -253 c-2 -157 0 -253 6 -253 5 0 12 9 15 20 7 25 18 25 51 -1 20 -16 24 -25 17 -32 -8 -8 -16 -5 -27 11 -8 12 -20 20 -25 16 -6 -4 -1 -16 12 -30 12 -13 19 -27 15 -31 -5 -5 -15 2 -23 15 -9 12 -22 22 -29 22 -21 0 -20 -1371 1 -1453 21 -81 60 -143 114 -183 86 -63 92 -64 638 -64 534 0 522 -1 465 53 -34 32 -42 34 -42 7 0 -25 -35 -34 -98 -26 -36 5 -44 4 -32 -5 13 -9 13 -10 -2 -5 -10 3 -124 6 -253 7 l-236 1 18 21 c64 72 30 66 360 65 164 0 285 -4 268 -8 -16 -4 -23 -8 -14 -9 24 -2 80 -68 73 -86 -9 -23 1937 -23 2012 0 78 24 143 80 184 159 l35 69 0 163 c0 90 1 164 2 164 2 0 201 -114 617 -354 134 -77 229 -126 246 -126 53 0 65 29 68 160 2 97 -1 121 -14 134 -13 13 -13 16 -1 16 10 0 14 13 13 45 0 26 -3 39 -8 32 -6 -9 -8 -9 -8 0 0 6 4 15 10 18 6 4 9 324 7 919 -2 883 -3 915 -21 935 -35 39 -65 28 -314 -116 -311 -179 -596 -343 -596 -343 -1 0 -1 73 -1 163 0 154 -1 165 -26 217 -34 74 -76 120 -141 156 l-53 29 -1515 2 c-1483 2 -1516 2 -1566 -18z"/>
</g>
</svg>
