<svg width="20" height="20" viewBox="0 0 53.19 53.19" fill="none" xmlns="http://www.w3.org/2000/svg" preserveAspectRatio="xMidYMid meet">
<g fill="#5621D2" stroke="none">
<path d="M40.19,19.61c.26-.14,.43-.22,.59-.31,2.64-1.52,5.27-3.04,7.9-4.56,.75-.43,1.3-.14,1.3,.72,0,1.51-.05,3.02-.06,4.53,0,1.12,.06,2.23,.06,3.35,0,3.92,0,7.85,0,11.77,0,.81,0,1.61,0,2.42,0,1.12-.49,1.4-1.45,.85-2.62-1.51-5.24-3.03-7.86-4.54-.13-.08-.27-.14-.5-.25,0,.86,.04,1.65-.01,2.43-.03,.54-.09,1.11-.31,1.59-.59,1.35-1.7,1.97-3.15,1.97-4.19,0-8.37,0-12.56,0-5.77,0-11.54,0-17.3,0-.49,0-.98-.07-1.45-.2-1.16-.31-2.13-1.71-2.13-2.85-.01-4.95-.04-9.91-.06-14.86,0-1.49-.02-2.99-.02-4.48,0-2.17,1.4-3.57,3.56-3.57,9.98,0,19.95,0,29.93,0,2.1,0,3.5,1.41,3.51,3.51,0,.8,0,1.6,0,2.5Zm8.33-3.04c-.27,.15-.43,.23-.58,.32-2.64,1.52-5.27,3.04-7.91,4.56-.78,.45-1.31,.16-1.32-.73,0-1.13,0-2.25,0-3.38,0-1.54-.71-2.24-2.26-2.24-2.87,0-5.74,0-8.6,0-7.04,0-14.07,0-21.11,0-1.23,0-2.05,.74-2.07,1.91-.03,1.16-.03,2.32-.03,3.48,0,4.94-.01,9.89-.02,14.83,0,.4-.03,.81,.02,1.21,.13,.96,.98,1.58,2.11,1.58,3.78,0,7.56,0,11.34,0,6.16,0,12.31,0,18.47,0,1.4,0,2.15-.75,2.15-2.16,0-1.2-.01-2.39,0-3.59,0-.7,.53-1,1.15-.7,.11,.05,.22,.12,.32,.18,2.57,1.49,5.15,2.97,7.72,4.46,.17,.1,.35,.18,.6,.3V16.57Z"/>
<path d="M30.23,27.05c0,.73-.02,1.45,.02,2.16,0,.1,.28,.27,.44,.27,1.05,.03,2.11,.03,3.16,0,.45,0,.68,.09,.67,.61-.03,.86-.01,.88-.65,.88-1.64,0-3.27,0-4.91,0-.43,0-.59-.14-.58-.58,.02-2.64,.02-5.28,0-7.92,0-.45,.16-.57,.59-.57,1.62,.02,3.23,.01,4.85,0,.33,0,.5,.11,.48,.46,0,.14-.01,.28,0,.42,.05,.47-.17,.62-.62,.61-.98-.02-1.96,0-2.94-.01-.38,0-.56,.08-.52,.49,.05,.52-.13,1.21,.14,1.51,.24,.26,.96,.1,1.46,.11,.56,0,1.13,.02,1.69,0,.44-.02,.62,.17,.57,.6-.01,.1,0,.21,0,.32,.04,.43-.14,.6-.58,.59-.95-.02-1.9,0-2.85,0-.12,0-.24,.02-.43,.04Z"/>
<path d="M23.44,28.5c.41-1.04,.78-1.96,1.14-2.88,.43-1.08,.86-2.15,1.27-3.24,.13-.34,.31-.48,.66-.44,.24,.02,.49,0,.74,0,.67,0,.73,.09,.48,.7-.6,1.46-1.22,2.92-1.82,4.38-.48,1.15-.97,2.3-1.42,3.46-.14,.37-.33,.52-.73,.52-1.27,0-1.28,.01-1.73-1.18-.88-2.33-1.74-4.67-2.61-7.01-.05-.13-.2-.27-.18-.37,.05-.18,.19-.33,.3-.49,.02-.02,.1,0,.15,0q1.35,.04,1.82,1.32c.62,1.7,1.24,3.4,1.92,5.23Z"/>
<path d="M11.69,29.47c.23,.01,.42,.03,.61,.03,.88,0,1.76,0,2.64,0,.95,0,1.13,.22,.92,1.16-.03,.13-.25,.31-.38,.31-1.76,.02-3.52,.01-5.27,.01-.39,0-.38-.28-.38-.55,0-2.43,0-4.85,0-7.28,0-.25,.01-.49,0-.74-.02-.34,.11-.48,.45-.47,1.62,.03,1.38-.23,1.39,1.28,.01,1.88,0,3.76,0,5.64,0,.19,.02,.38,.03,.61Z"/>
<path d="M16.71,26.45c0-1.25,0-2.5,0-3.74q0-.74,.75-.72c.99,.02,1.01,.02,1.04,.98,.04,1.17,.06,2.35,.07,3.53,.01,1.3,0,2.6,0,3.9,0,.42-.1,.61-.56,.6-1.6-.02-1.29,.07-1.31-1.28-.02-1.09,0-2.18,0-3.27Z"/>
</g>
</svg>
