<svg width="20" height="20" viewBox="0 0 20 20" fill="none" xmlns="http://www.w3.org/2000/svg">
<path d="M16.9038 1.88512C15.6882 0.66957 14.0692 0 12.3455 0V1.17203C13.7562 1.17203 15.0811 1.71973 16.0751 2.71379C17.0692 3.70785 17.6169 5.03266 17.6169 6.4434H18.7889C18.7889 4.71965 18.1193 3.10063 16.9038 1.88512Z" fill="#5621D2"/>
<path d="M15.2459 3.54303C14.4727 2.76928 13.4426 2.34296 12.3455 2.34296V3.51499C13.1295 3.51499 13.865 3.81944 14.4172 4.37171C14.9694 4.92397 15.2739 5.65932 15.2739 6.44339H16.4459C16.4459 5.34632 16.0196 4.3162 15.2459 3.54303Z" fill="#5621D2"/>
<path d="M10.688 8.92956L11.6007 8.0169C11.8378 8.1287 12.0882 8.20034 12.3455 8.20034C12.7959 8.20034 13.2457 8.02921 13.5885 7.68644C14.2741 7.00081 14.2741 5.88601 13.5885 5.20042C12.9029 4.51483 11.7881 4.5148 11.1025 5.20042C10.5637 5.73917 10.4641 6.53601 10.772 7.18823L9.85937 8.10089L4.88004 3.12183L4.47832 3.68608C2.49765 6.46452 2.6384 10.2639 4.76504 12.893L4.76445 12.8936C7.29472 16.0033 11.838 16.638 15.1028 14.3106L15.6671 13.9083L10.688 8.92956Z" fill="#5621D2"/>
<path d="M9.34207 18.8279L9.07031 16.7239C7.36019 16.4008 5.77625 15.5768 4.52714 14.3524L3.65933 18.8279H1.21109V20H11.7595V18.8279H9.34207Z" fill="#5621D2"/>
</svg>
