<svg width="12" height="12" viewBox="0 0 12 12" fill="none" xmlns="http://www.w3.org/2000/svg">
<g clip-path="url(#clip0_49_449)">
<path d="M4.94522 3.63277C2.23132 3.63277 2.46819e-05 5.49902 2.46819e-05 7.79306C2.46819e-05 8.71006 0.355712 9.642 1.008 10.3643L0.0868841 11.4169C-0.00374876 11.5206 -0.0257331 11.6679 0.0316184 11.7935C0.0886184 11.9192 0.213587 11.9999 0.351587 11.9999H5.29678C7.30057 11.9999 9.89042 10.2744 9.89042 7.79306C9.89042 5.49902 7.65912 3.63277 4.94522 3.63277ZM2.81245 8.43745C2.42484 8.43745 2.10935 8.12194 2.10935 7.73435C2.10935 7.34674 2.42487 7.03125 2.81245 7.03125C3.20004 7.03125 3.51556 7.34677 3.51556 7.73435C3.51558 8.12194 3.20006 8.43745 2.81245 8.43745ZM4.94522 8.43745C4.55761 8.43745 4.24212 8.12194 4.24212 7.73435C4.24212 7.34674 4.55763 7.03125 4.94522 7.03125C5.33281 7.03125 5.64832 7.34677 5.64832 7.73435C5.64832 8.12194 5.33283 8.43745 4.94522 8.43745ZM7.07799 8.43745C6.69038 8.43745 6.37488 8.12194 6.37488 7.73435C6.37488 7.34674 6.6904 7.03125 7.07799 7.03125C7.46557 7.03125 7.78109 7.34677 7.78109 7.73435C7.78109 8.12194 7.46559 8.43745 7.07799 8.43745Z" fill="white"/>
<path d="M11.9149 7.15378L11.0872 6.18804C11.6781 5.52133 11.9998 4.70833 11.9998 3.86723C11.9997 1.73491 9.94947 0.000137329 7.42954 0.000137329C5.15083 0.000137329 3.21487 1.42019 2.87303 3.2685C3.50884 3.05245 4.22188 2.92964 4.94523 2.92964C8.02382 2.92964 10.5531 5.07991 10.5901 7.73432H11.6482C11.9485 7.73435 12.1098 7.38072 11.9149 7.15378Z" fill="white"/>
</g>
<defs>
<clipPath id="clip0_49_449">
<rect width="12" height="12" fill="white"/>
</clipPath>
</defs>
</svg>
