<svg width="12" height="12" viewBox="0 0 12 12" fill="none" xmlns="http://www.w3.org/2000/svg">
<g clip-path="url(#clip0_49_571)">
<path d="M10.1016 0H2.8125C2.03705 0 1.40625 0.630798 1.40625 1.40625V2.27344H0.46875V3.21094H1.40625V5.55469H0.46875V6.49219H1.40625V8.83594H0.46875V9.77344H1.40625V10.5938C1.40625 11.3692 2.03705 12 2.8125 12H10.1016C10.877 12 11.5078 11.3692 11.5078 10.5938V1.40625C11.5078 0.630798 10.877 0 10.1016 0ZM10.5703 10.5938C10.5703 10.8522 10.36 11.0625 10.1016 11.0625H2.8125C2.55405 11.0625 2.34375 10.8522 2.34375 10.5938V9.77344H2.55469V9.77225C2.56247 9.77261 2.57025 9.77344 2.57812 9.77344C2.83704 9.77344 3.04688 9.5636 3.04688 9.30469C3.04688 9.04578 2.83704 8.83594 2.57812 8.83594C2.57025 8.83594 2.56247 8.83676 2.55469 8.83713V8.83594H2.34375V6.49219H2.55469V6.491C2.56247 6.49136 2.57025 6.49219 2.57812 6.49219C2.83704 6.49219 3.04688 6.28235 3.04688 6.02344C3.04688 5.76453 2.83704 5.55469 2.57812 5.55469C2.57025 5.55469 2.56247 5.55551 2.55469 5.55588V5.55469H2.34375V3.21094H2.55469V3.20975C2.56247 3.21011 2.57025 3.21094 2.57812 3.21094C2.83704 3.21094 3.04688 3.0011 3.04688 2.74219C3.04688 2.48328 2.83704 2.27344 2.57812 2.27344C2.57025 2.27344 2.56247 2.27426 2.55469 2.27463V2.27344H2.34375V1.40625C2.34375 1.1478 2.55405 0.9375 2.8125 0.9375H10.1016C10.36 0.9375 10.5703 1.1478 10.5703 1.40625V10.5938ZM7.92197 5.87677C8.15515 5.59039 8.29523 5.22537 8.29523 4.82812C8.29523 3.91058 7.54871 3.16406 6.63116 3.16406C5.71362 3.16406 4.9671 3.91058 4.9671 4.82812C4.9671 5.2337 5.11313 5.60568 5.3551 5.89471C4.44415 6.36713 3.82031 7.31909 3.82031 8.41406H4.75781C4.75781 7.36725 5.60944 6.51562 6.65625 6.51562C7.70306 6.51562 8.55469 7.36725 8.55469 8.41406H9.49219C9.49219 7.3049 8.85205 6.34268 7.92197 5.87677ZM6.63116 4.10156C7.0318 4.10156 7.35773 4.42749 7.35773 4.82812C7.35773 5.22876 7.0318 5.55469 6.63116 5.55469C6.23053 5.55469 5.9046 5.22876 5.9046 4.82812C5.9046 4.42749 6.23053 4.10156 6.63116 4.10156Z" fill="#364152"/>
</g>
<defs>
<clipPath id="clip0_49_571">
<rect width="12" height="12" fill="white"/>
</clipPath>
</defs>
</svg>
