<svg width="12" height="12" viewBox="0 0 12 12" fill="none" xmlns="http://www.w3.org/2000/svg">
<g clip-path="url(#clip0_49_443)">
<path d="M11.6764 5.21942C11.6762 5.21915 11.6759 5.21887 11.6756 5.2186L6.78057 0.32373C6.57193 0.11499 6.29452 0 5.99945 0C5.70437 0 5.42697 0.114899 5.21823 0.323639L0.325742 5.21603C0.324094 5.21768 0.322446 5.21942 0.320798 5.22107C-0.107669 5.65201 -0.106937 6.3512 0.322904 6.78104C0.519284 6.97751 0.778653 7.09131 1.05597 7.10321C1.06723 7.10431 1.07858 7.10486 1.09002 7.10486H1.28512V10.7072C1.28512 11.42 1.86511 12 2.57812 12H4.49322C4.68731 12 4.84478 11.8426 4.84478 11.6484V8.82422C4.84478 8.49893 5.10937 8.23434 5.43466 8.23434H6.56424C6.88952 8.23434 7.15411 8.49893 7.15411 8.82422V11.6484C7.15411 11.8426 7.31149 12 7.50567 12H9.42077C10.1338 12 10.7138 11.42 10.7138 10.7072V7.10486H10.8947C11.1897 7.10486 11.4671 6.98996 11.6759 6.78122C12.1062 6.35065 12.1064 5.65027 11.6764 5.21942Z" fill="white"/>
</g>
<defs>
<clipPath id="clip0_49_443">
<rect width="12" height="12" fill="white"/>
</clipPath>
</defs>
</svg>
