<svg width="20" height="20" viewBox="0 0 20 20" fill="none" xmlns="http://www.w3.org/2000/svg">
<g clip-path="url(#clip0_71_682)">
<path d="M18.2422 9.45312H1.75781C0.788516 9.45312 0 10.2416 0 11.2109V18.2422C0 19.2115 0.788516 20 1.75781 20H18.2422C19.2115 20 20 19.2115 20 18.2422V11.2109C20 10.2416 19.2115 9.45312 18.2422 9.45312ZM5.3125 17.6562H2.96875C2.64488 17.6562 2.38281 17.3942 2.38281 17.0703V12.3828C2.38281 12.0589 2.64488 11.7969 2.96875 11.7969C3.29262 11.7969 3.55469 12.0589 3.55469 12.3828V16.4844H5.3125C5.63637 16.4844 5.89844 16.7464 5.89844 17.0703C5.89844 17.3942 5.63637 17.6562 5.3125 17.6562ZM8.24219 17.0703C8.24219 17.3942 7.98012 17.6562 7.65625 17.6562C7.33238 17.6562 7.07031 17.3942 7.07031 17.0703V12.3828C7.07031 12.0589 7.33238 11.7969 7.65625 11.7969C7.98012 11.7969 8.24219 12.0589 8.24219 12.3828V17.0703ZM12.912 12.5247L11.7401 17.2122C11.6748 17.4732 11.4408 17.6562 11.1719 17.6562C10.9029 17.6562 10.6689 17.4731 10.6037 17.2122L9.4318 12.5247C9.35285 12.2112 9.54395 11.893 9.85809 11.8146C10.1711 11.7334 10.4898 11.9268 10.5682 12.2409L11.1719 14.6545L11.7755 12.2409C11.8534 11.9268 12.1715 11.7328 12.4857 11.8146C12.7998 11.893 12.9909 12.2112 12.912 12.5247ZM17.0312 14.1406C17.3551 14.1406 17.6172 14.4027 17.6172 14.7266C17.6172 15.0504 17.3551 15.3125 17.0312 15.3125H15.2734V16.4844H17.0312C17.3551 16.4844 17.6172 16.7464 17.6172 17.0703C17.6172 17.3942 17.3551 17.6562 17.0312 17.6562H14.6875C14.3636 17.6562 14.1016 17.3942 14.1016 17.0703V12.3828C14.1016 12.0589 14.3636 11.7969 14.6875 11.7969H17.0312C17.3551 11.7969 17.6172 12.0589 17.6172 12.3828C17.6172 12.7067 17.3551 12.9688 17.0312 12.9688H15.2734V14.1406H17.0312Z" fill="#5621D2"/>
<path d="M4.84328 7.96912C3.13352 5.69173 3.13352 2.51142 4.84328 0.234039C5.03727 -0.0240079 5.4052 -0.0772501 5.66383 0.11732C5.92246 0.311891 5.97453 0.679234 5.78055 0.937867C4.38153 2.80041 4.38153 5.40279 5.78055 7.26529C5.97453 7.52392 5.92246 7.89126 5.66383 8.08583C5.40629 8.27904 5.0382 8.22896 4.84328 7.96912Z" fill="#5621D2"/>
<path d="M14.3362 8.08583C14.0775 7.8913 14.0255 7.52391 14.2195 7.26528C15.6185 5.40274 15.6185 2.80036 14.2195 0.93786C14.0255 0.679227 14.0775 0.311883 14.3362 0.117313C14.5948 -0.0766716 14.9633 -0.0240153 15.1567 0.234032C16.8665 2.51141 16.8665 5.69173 15.1567 7.96911C14.9621 8.22856 14.5942 8.27934 14.3362 8.08583Z" fill="#5621D2"/>
<path d="M6.94274 6.83613C5.54656 5.27746 5.54656 2.9257 6.94274 1.36699C7.15902 1.12609 7.53098 1.10664 7.77016 1.32121C8.01106 1.53691 8.03164 1.90773 7.81594 2.14863C6.81914 3.26215 6.81914 4.94098 7.81594 6.05449C8.03164 6.29539 8.01106 6.66617 7.77016 6.88191C7.53008 7.09734 7.15867 7.07773 6.94274 6.83613Z" fill="#5621D2"/>
<path d="M12.2299 6.88192C11.989 6.66622 11.9684 6.2954 12.1841 6.0545C13.1809 4.94099 13.1809 3.26216 12.1841 2.14864C11.9684 1.90774 11.989 1.53696 12.2299 1.32122C12.4702 1.10606 12.8416 1.12552 13.0573 1.367C14.4535 2.92567 14.4535 5.27743 13.0573 6.83614C12.8414 7.07767 12.47 7.09739 12.2299 6.88192Z" fill="#5621D2"/>
<path d="M10 5.85938C9.0307 5.85938 8.24219 5.07086 8.24219 4.10156C8.24219 3.13227 9.0307 2.34375 10 2.34375C10.9693 2.34375 11.7578 3.13227 11.7578 4.10156C11.7578 5.07086 10.9693 5.85938 10 5.85938Z" fill="#5621D2"/>
</g>
<defs>
<clipPath id="clip0_71_682">
<rect width="20" height="20" fill="white"/>
</clipPath>
</defs>
</svg>
