<?xml version="1.0" standalone="no"?>
<!DOCTYPE svg PUBLIC "-//W3C//DTD SVG 20010904//EN"
 "http://www.w3.org/TR/2001/REC-SVG-20010904/DTD/svg10.dtd">
<svg version="1.0" xmlns="http://www.w3.org/2000/svg"
 width="245.000000pt" height="180.000000pt" viewBox="0 0 245.000000 180.000000"
 preserveAspectRatio="xMidYMid meet">
<g transform="translate(0.000000,180.000000) scale(0.100000,-0.100000)"
fill="#000000" stroke="none">
<path d="M339 1616 c-2 -2 -2 -29 -1 -60 l4 -56 88 0 88 0 4 56 c1 31 1 58 -1
60 -2 2 -43 4 -91 4 -48 0 -89 -2 -91 -4z m149 -58 c3 -27 2 -28 -47 -28 -62
0 -81 7 -81 30 0 24 15 29 75 27 47 -2 50 -4 53 -29z"/>
<path d="M1094 1558 c3 -13 6 -38 6 -55 0 -20 5 -33 13 -33 8 0 11 16 9 55 -3
41 -8 55 -19 55 -11 0 -14 -6 -9 -22z"/>
<path d="M1168 1510 c2 -38 7 -70 12 -70 5 0 10 32 12 70 2 57 0 70 -12 70
-12 0 -14 -13 -12 -70z"/>
<path d="M1240 1557 c0 -13 -3 -39 -6 -56 -4 -19 -2 -31 4 -31 10 0 19 33 25
89 1 8 -4 16 -10 18 -8 3 -13 -5 -13 -20z"/>
<path d="M1025 1533 c10 -57 15 -73 26 -73 12 0 11 11 -2 66 -14 54 -32 59
-24 7z"/>
<path d="M1315 1558 c-2 -7 -9 -32 -14 -55 -7 -33 -6 -43 4 -43 15 0 37 98 24
106 -5 3 -11 -1 -14 -8z"/>
<path d="M950 1543 c1 -26 29 -98 40 -101 9 -3 11 1 7 11 -3 9 -11 34 -17 56
-6 23 -15 41 -20 41 -6 0 -10 -3 -10 -7z"/>
<path d="M1385 1534 c-4 -10 -11 -29 -16 -42 -11 -28 -12 -52 -1 -52 13 0 42
94 32 104 -6 6 -12 2 -15 -10z"/>
<path d="M887 1523 c-10 -15 25 -103 40 -103 17 0 17 -2 -10 60 -13 30 -27 49
-30 43z"/>
<path d="M1433 1470 c-28 -65 -6 -69 25 -5 26 53 26 55 10 55 -7 0 -23 -23
-35 -50z"/>
<path d="M418 1482 l-238 -2 0 -620 0 -620 242 0 241 0 -56 57 c-31 32 -65 70
-77 85 -20 26 -26 28 -101 28 l-79 0 0 455 0 455 83 0 82 0 23 35 c13 19 46
55 74 81 27 25 48 47 46 48 -2 0 -110 0 -240 -2z m175 -28 c-3 -8 -12 -13 -20
-10 -8 3 -12 2 -9 -3 3 -4 -3 -16 -14 -26 -11 -10 -20 -24 -20 -32 0 -7 -7
-13 -16 -13 -8 0 -13 -4 -9 -9 10 -17 -17 -24 -85 -22 -51 2 -71 -2 -83 -14
-14 -14 -16 -67 -16 -473 1 -448 1 -457 21 -477 12 -11 18 -15 15 -9 -5 8 13
12 58 13 51 1 66 -2 75 -16 9 -15 10 -14 4 7 -6 24 -6 24 9 5 12 -15 13 -24 4
-35 -9 -12 -9 -13 3 -3 19 18 33 16 26 -3 -4 -10 -2 -13 6 -8 8 5 9 2 5 -10
-4 -9 -3 -15 2 -12 11 7 36 -22 27 -31 -4 -4 -10 -3 -14 3 -4 6 -16 10 -27 8
-11 -2 -86 -6 -166 -9 l-147 -6 -4 583 c-2 321 -3 588 -1 593 2 6 71 10 183 9
99 -1 183 3 186 7 9 15 14 10 7 -7z"/>
<path d="M810 1485 c0 -5 59 -114 67 -124 2 -3 8 0 14 6 12 12 -49 122 -68
123 -7 0 -13 -2 -13 -5z"/>
<path d="M1492 1431 c-21 -39 -29 -62 -22 -66 13 -8 9 -13 48 56 28 50 32 69
13 69 -4 0 -21 -27 -39 -59z"/>
<path d="M1700 1483 c0 -1 22 -23 49 -48 27 -25 60 -61 73 -80 l23 -35 83 0
82 0 0 -455 0 -455 -79 0 c-78 0 -79 0 -105 -35 -15 -19 -50 -57 -78 -85 l-51
-50 242 0 241 0 0 620 0 619 -240 3 c-132 2 -240 2 -240 1z m298 -32 l152 -1
-2 -587 -3 -588 -165 2 c-208 2 -200 1 -193 19 4 11 9 12 18 4 10 -8 15 -8 21
1 4 8 3 9 -4 5 -7 -4 -12 -1 -12 7 0 19 44 59 55 50 4 -5 5 -3 1 4 -3 6 -2 14
4 18 5 3 10 1 10 -5 0 -6 4 -9 9 -6 5 3 41 6 80 7 39 1 74 5 77 10 3 5 -3 6
-13 2 -15 -6 -16 -4 -6 8 10 12 12 116 10 436 -1 232 1 419 6 416 4 -2 7 6 7
19 0 19 -2 20 -10 8 -8 -11 -9 -8 -4 12 7 33 -17 48 -80 48 -30 0 -46 4 -47
13 0 6 -4 3 -9 -8 -5 -11 -9 -14 -9 -6 -1 7 -7 11 -16 7 -8 -3 -19 3 -25 14
-5 10 -16 24 -23 32 -7 7 -21 25 -30 39 l-17 26 32 -2 c18 -2 102 -3 186 -4z"/>
<path d="M1860 1390 c-9 -6 -10 -10 -3 -10 6 0 15 5 18 10 8 12 4 12 -15 0z"/>
<path d="M750 1442 c0 -16 62 -92 71 -86 10 6 -47 94 -61 94 -6 0 -10 -4 -10
-8z"/>
<path d="M1561 1408 c-32 -43 -38 -58 -23 -58 14 0 73 88 63 94 -5 4 -23 -13
-40 -36z"/>
<path d="M1066 1404 c-73 -16 -169 -60 -224 -102 l-33 -25 108 -57 c341 -179
405 -211 409 -207 3 2 2 90 -2 195 -8 218 3 198 -119 207 -44 3 -96 -1 -139
-11z m213 -23 c10 -6 14 -45 16 -149 2 -78 6 -145 8 -149 3 -4 -1 -14 -9 -20
-8 -8 -15 -9 -19 -3 -3 5 -26 18 -50 29 -25 11 -45 23 -45 26 0 3 5 3 12 -1 7
-4 8 -3 4 4 -4 8 -18 9 -34 5 -24 -6 -25 -4 -14 9 14 18 0 34 -19 22 -21 -12
-147 55 -131 70 3 4 -1 4 -11 0 -10 -3 -17 -1 -17 6 0 6 -4 9 -8 6 -8 -5 -69
22 -88 38 -12 12 40 61 55 52 5 -3 12 1 15 10 3 8 10 13 14 10 5 -3 25 3 44
14 20 10 38 16 41 14 3 -3 14 -1 24 5 22 12 192 14 212 2z m-129 -235 c0 -2
-7 -7 -16 -10 -8 -3 -12 -2 -9 4 6 10 25 14 25 6z"/>
<path d="M996 1345 c-11 -8 -15 -15 -9 -15 6 0 16 7 23 15 16 19 11 19 -14 0z"/>
<path d="M1026 1207 c3 -10 9 -15 12 -12 3 3 0 11 -7 18 -10 9 -11 8 -5 -6z"/>
<path d="M696 1401 c-4 -6 9 -28 32 -52 51 -54 61 -37 13 20 -25 29 -40 40
-45 32z"/>
<path d="M1610 1360 c-18 -23 -29 -44 -25 -48 7 -8 75 62 75 78 0 20 -19 9
-50 -30z"/>
<path d="M1356 1303 c13 -237 22 -489 17 -495 -2 -5 0 -8 6 -8 5 0 12 4 15 9
3 4 75 52 161 106 85 53 155 103 155 110 0 7 -17 45 -37 86 -49 98 -152 202
-245 247 -37 17 -70 32 -72 32 -3 0 -3 -39 0 -87z m40 28 c-3 -4 7 -7 22 -7
18 1 26 -4 24 -13 -3 -12 -1 -12 13 -1 9 7 15 9 13 4 -2 -5 2 -11 7 -12 38
-14 46 -23 33 -40 -8 -9 -8 -13 -1 -9 16 10 43 -3 43 -21 0 -8 3 -12 7 -9 9 9
44 -23 37 -34 -3 -5 -1 -9 5 -9 5 0 8 -9 6 -19 -2 -13 1 -18 9 -15 8 3 23 -15
40 -49 14 -30 26 -57 26 -61 0 -11 -43 -45 -57 -46 -7 0 -13 -6 -13 -12 0 -10
-3 -9 -9 1 -7 11 -10 9 -15 -6 -4 -13 -15 -20 -31 -20 -14 0 -22 4 -18 10 3 6
1 7 -5 3 -6 -4 -9 -13 -6 -20 6 -16 -42 -49 -59 -40 -7 4 -9 4 -5 -1 9 -10
-29 -45 -49 -45 -10 0 -14 13 -13 43 2 91 -17 405 -26 418 -3 5 0 9 6 9 6 0 8
5 4 12 -4 7 -3 8 5 4 6 -4 9 -11 7 -15z"/>
<path d="M1485 1270 c-3 -6 1 -7 9 -4 18 7 21 14 7 14 -6 0 -13 -4 -16 -10z"/>
<path d="M1421 1164 c0 -11 3 -14 6 -6 3 7 2 16 -1 19 -3 4 -6 -2 -5 -13z"/>
<path d="M1626 1103 c-6 -14 -5 -15 5 -6 7 7 10 15 7 18 -3 3 -9 -2 -12 -12z"/>
<path d="M640 1341 c0 -14 80 -74 88 -66 4 4 -11 22 -32 41 -40 34 -56 42 -56
25z"/>
<path d="M1659 1312 c-23 -21 -38 -41 -33 -44 5 -4 29 11 53 31 25 22 40 41
34 44 -6 4 -30 -10 -54 -31z"/>
<path d="M596 1291 c-6 -9 67 -71 83 -71 22 0 10 17 -34 48 -24 17 -47 27 -49
23z"/>
<path d="M1702 1259 c-23 -17 -40 -35 -36 -40 6 -10 14 -7 62 29 30 23 42 43
25 42 -5 -1 -27 -14 -51 -31z"/>
<path d="M751 1213 c-43 -53 -88 -141 -106 -208 -13 -52 -22 -255 -11 -255 2
0 60 35 128 78 68 43 178 113 246 156 l123 78 -28 17 c-15 10 -94 52 -175 94
l-147 76 -30 -36z m77 -34 c-8 -5 -1 -7 19 -5 26 4 36 -1 52 -22 11 -15 21
-21 21 -14 0 9 6 9 23 -3 13 -8 27 -12 30 -9 4 4 9 -1 13 -10 3 -9 14 -16 24
-16 21 0 43 -23 32 -35 -4 -5 -2 -5 5 -1 6 3 14 2 18 -4 3 -5 1 -10 -5 -10 -6
0 -23 -11 -38 -26 -15 -14 -40 -28 -55 -31 -15 -3 -36 -17 -47 -31 -11 -13
-20 -22 -20 -18 0 4 -7 1 -15 -6 -33 -30 -45 -38 -55 -38 -5 0 -10 -5 -10 -11
0 -5 -4 -8 -9 -5 -13 8 -42 -4 -36 -14 3 -5 1 -11 -5 -15 -5 -3 -10 0 -10 7 0
8 -5 6 -11 -4 -5 -10 -17 -18 -25 -18 -8 0 -13 -4 -10 -9 3 -5 -1 -12 -10 -15
-10 -4 -13 -2 -8 7 4 6 -4 2 -17 -10 -23 -21 -25 -21 -25 -3 0 10 5 16 11 13
5 -3 4 0 -2 8 -7 7 -13 27 -13 44 0 42 28 167 38 174 5 3 10 14 10 24 4 40 6
46 14 41 4 -3 8 1 8 9 0 8 11 26 25 41 13 14 21 26 17 26 -4 0 -1 4 7 9 8 5
26 5 43 -1 22 -8 26 -13 16 -19z"/>
<path d="M780 1185 c0 -2 6 -8 13 -14 10 -8 14 -7 14 2 0 8 -6 14 -14 14 -7 0
-13 -1 -13 -2z"/>
<path d="M485 1231 c-3 -5 -2 -12 3 -15 5 -3 9 1 9 9 0 17 -3 19 -12 6z"/>
<path d="M557 1225 c-8 -19 114 -90 124 -73 5 8 1 16 -9 22 -9 5 -38 21 -64
37 -35 21 -48 25 -51 14z"/>
<path d="M1738 1203 c-32 -20 -58 -42 -58 -49 0 -19 1 -19 69 22 40 24 58 40
54 50 -3 8 -6 14 -7 13 0 -1 -27 -17 -58 -36z"/>
<path d="M520 1160 c0 -10 71 -50 90 -50 23 0 7 17 -35 38 -52 25 -55 26 -55
12z"/>
<path d="M1773 1140 c-24 -11 -43 -24 -43 -30 0 -13 1 -13 54 10 25 10 46 24
46 30 0 13 -7 12 -57 -10z"/>
<path d="M495 1091 c-3 -6 2 -14 12 -17 10 -3 32 -12 50 -19 22 -10 34 -11 39
-4 7 13 6 13 -31 26 -16 6 -37 14 -46 18 -10 3 -20 2 -24 -4z"/>
<path d="M1796 1076 c-36 -11 -62 -36 -39 -36 21 0 103 33 103 41 0 11 -15 10
-64 -5z"/>
<path d="M474 1018 c-8 -13 -6 -14 54 -25 40 -8 52 -7 52 2 0 15 -98 36 -106
23z"/>
<path d="M1813 1008 c-54 -12 -58 -33 -5 -24 55 10 72 16 72 27 0 11 -10 10
-67 -3z"/>
<path d="M1555 872 c-82 -54 -190 -122 -238 -153 l-88 -57 83 -44 c46 -25 124
-67 175 -93 l92 -48 25 29 c38 43 93 153 111 220 19 73 21 244 3 243 -7 0 -80
-44 -163 -97z m149 -6 c2 -32 -1 -75 -6 -95 -6 -20 -12 -43 -13 -51 -6 -46
-19 -82 -31 -87 -7 -3 -18 -20 -24 -39 -6 -19 -16 -34 -22 -34 -6 0 -9 -3 -5
-6 3 -3 -3 -15 -13 -26 -17 -19 -19 -19 -44 -3 -14 9 -31 13 -37 9 -7 -4 -9
-3 -5 4 3 6 -3 13 -14 17 -11 3 -20 11 -20 16 0 6 -4 8 -9 4 -5 -3 -33 8 -61
25 -28 17 -48 25 -45 18 4 -7 0 -5 -8 5 -8 9 -17 17 -21 17 -4 0 -14 6 -21 14
-12 12 -11 16 4 30 13 12 21 14 26 7 3 -6 1 -11 -6 -11 -7 0 -9 -3 -6 -6 4 -4
13 -2 20 5 8 6 23 8 33 5 17 -6 17 -5 -1 9 -15 11 -22 12 -27 4 -5 -7 -8 -8
-8 -1 0 17 23 34 46 34 13 0 32 12 43 26 12 15 21 24 21 20 0 -4 29 14 65 38
36 26 67 41 70 36 9 -14 25 -2 19 13 -3 8 5 13 18 14 16 2 19 0 10 -6 -11 -7
-11 -9 1 -14 12 -4 14 0 11 16 -2 16 4 27 24 38 15 9 28 15 29 14 2 -1 4 -27
7 -59z"/>
<path d="M1666 872 c-3 -5 1 -9 9 -9 8 0 12 4 9 9 -3 4 -7 8 -9 8 -2 0 -6 -4
-9 -8z"/>
<path d="M1480 779 c-12 -8 -10 -9 9 -4 17 5 22 4 16 -5 -5 -9 -4 -11 4 -6 6
4 9 12 6 17 -8 12 -16 11 -35 -2z"/>
<path d="M464 948 c-9 -13 -5 -15 54 -23 35 -5 52 -3 52 4 0 6 -3 11 -7 11 -5
1 -27 5 -51 9 -25 5 -45 5 -48 -1z"/>
<path d="M1828 943 c-35 -3 -48 -8 -48 -20 0 -11 6 -14 23 -9 12 3 37 6 55 6
22 0 32 5 32 15 0 8 -3 14 -7 13 -5 -1 -29 -3 -55 -5z"/>
<path d="M813 817 c-89 -56 -162 -107 -162 -113 -2 -34 83 -174 140 -231 57
-57 200 -146 212 -133 2 3 1 86 -4 185 -4 99 -9 228 -11 287 -2 60 -5 108 -8
108 -3 0 -78 -46 -167 -103z m148 1 c1 -29 2 -78 4 -108 14 -239 13 -330 -1
-330 -8 0 -12 5 -9 10 3 6 1 10 -6 10 -8 0 -8 4 1 15 11 13 10 14 -4 9 -9 -3
-16 -13 -16 -20 0 -12 -3 -12 -14 -2 -8 7 -11 17 -8 22 3 5 0 6 -6 3 -13 -9
-42 2 -42 15 0 5 5 6 12 2 7 -4 8 -3 4 5 -4 6 -11 9 -16 6 -4 -3 -13 2 -20 10
-7 8 -16 13 -20 10 -5 -3 -12 0 -16 6 -5 8 -3 9 7 4 8 -5 3 3 -11 16 -42 42
-84 100 -102 143 -11 25 -13 34 -4 23 12 -16 14 -16 20 -2 3 9 2 14 -2 12 -4
-3 -16 5 -27 16 -11 11 -14 17 -7 13 8 -5 19 -1 27 10 8 11 15 15 15 10 0 -5
11 1 24 13 15 14 30 20 37 16 8 -6 10 -4 4 5 -6 10 -1 12 26 7 19 -3 28 -3 22
0 -7 2 -13 12 -13 21 0 12 3 13 12 4 7 -7 17 -12 22 -12 6 0 5 4 -2 9 -14 8
15 35 73 68 33 18 35 16 36 -39z"/>
<path d="M828 513 c6 -2 9 -10 6 -15 -4 -7 -2 -8 5 -4 13 9 5 26 -12 25 -9 0
-8 -2 1 -6z"/>
<path d="M865 489 c-4 -6 -5 -12 -2 -15 2 -3 7 2 10 11 7 17 1 20 -8 4z"/>
<path d="M460 865 c0 -12 14 -15 70 -15 56 0 70 3 70 15 0 12 -14 15 -70 15
-56 0 -70 -3 -70 -15z"/>
<path d="M1760 865 c0 -12 14 -15 70 -15 56 0 70 3 70 15 0 12 -14 15 -70 15
-56 0 -70 -3 -70 -15z"/>
<path d="M460 794 c0 -13 7 -15 31 -10 17 3 42 6 55 6 13 0 24 5 24 10 0 6
-25 10 -55 10 -44 0 -55 -3 -55 -16z"/>
<path d="M1780 795 c0 -15 98 -26 107 -12 7 12 3 14 -54 20 -41 5 -53 3 -53
-8z"/>
<path d="M508 738 c-21 -6 -38 -15 -38 -20 0 -6 14 -8 38 -4 55 10 72 16 72
27 0 11 -23 10 -72 -3z"/>
<path d="M1770 734 c0 -7 19 -16 43 -20 55 -11 57 -11 56 1 0 6 -23 15 -50 21
-39 9 -49 8 -49 -2z"/>
<path d="M1036 528 c4 -106 10 -197 14 -201 14 -16 167 -20 232 -7 69 13 184
63 236 103 l33 25 -148 78 c-81 42 -197 104 -257 136 -60 32 -111 58 -113 58
-2 0 -1 -87 3 -192z m45 131 c9 2 69 -24 69 -30 0 -4 11 -10 25 -13 13 -3 34
-16 45 -28 11 -12 20 -17 20 -11 0 6 13 5 35 -5 28 -13 32 -18 22 -31 -10 -12
-9 -13 10 -2 18 9 22 9 17 -2 -3 -9 3 -13 18 -13 14 1 22 -4 20 -12 -1 -9 6
-12 20 -10 15 2 22 -2 20 -10 -1 -8 2 -11 8 -7 6 4 18 -1 26 -11 9 -11 12 -13
9 -6 -5 10 1 9 24 -2 17 -9 31 -22 31 -29 0 -8 -4 -7 -10 3 -9 13 -10 13 -11
0 -1 -8 -1 -19 0 -23 1 -5 -3 -6 -8 -3 -5 4 -8 16 -6 27 4 17 2 19 -10 9 -8
-7 -15 -9 -15 -5 0 4 -7 2 -15 -5 -8 -6 -18 -9 -23 -6 -5 3 -9 -1 -9 -9 0 -13
3 -13 23 -1 23 16 34 12 34 -10 0 -8 -6 -11 -17 -7 -11 4 -14 3 -9 -5 5 -8 1
-10 -10 -5 -12 4 -15 3 -10 -5 4 -7 1 -12 -8 -12 -27 0 -31 -1 -47 -16 -9 -8
-18 -11 -21 -8 -4 3 -15 1 -25 -4 -26 -14 -161 -24 -168 -12 -3 5 -18 7 -33 4
-31 -6 -28 -20 -41 161 -4 61 -5 115 -2 120 3 6 4 21 3 35 -2 18 0 21 6 12 5
-8 11 -13 13 -13z"/>
<path d="M1098 633 c7 -3 16 -2 19 1 4 3 -2 6 -13 5 -11 0 -14 -3 -6 -6z"/>
<path d="M1066 611 c-4 -5 3 -7 14 -4 23 6 26 13 6 13 -8 0 -17 -4 -20 -9z"/>
<path d="M1268 553 c7 -3 16 -2 19 1 4 3 -2 6 -13 5 -11 0 -14 -3 -6 -6z"/>
<path d="M1260 530 c-9 -6 -10 -10 -3 -10 6 0 15 5 18 10 8 12 4 12 -15 0z"/>
<path d="M538 673 c-55 -16 -67 -39 -15 -28 53 12 79 24 72 35 -3 5 -7 10 -8
9 -1 -1 -23 -8 -49 -16z"/>
<path d="M1750 671 c0 -5 21 -16 47 -25 54 -18 63 -19 63 -7 0 5 -21 16 -47
25 -54 18 -63 19 -63 7z"/>
<path d="M556 606 c-27 -13 -45 -26 -39 -29 14 -9 103 29 103 43 0 14 -7 12
-64 -14z"/>
<path d="M1726 611 c-3 -5 16 -17 42 -27 26 -11 50 -20 54 -22 5 -2 8 1 8 8 0
6 -21 20 -46 30 -53 23 -51 23 -58 11z"/>
<path d="M615 554 c-22 -14 -47 -29 -55 -34 -10 -6 -12 -12 -5 -19 11 -11 116
46 123 67 6 18 -18 13 -63 -14z"/>
<path d="M1682 568 c6 -17 109 -78 120 -72 17 11 6 22 -51 53 -65 34 -75 37
-69 19z"/>
<path d="M633 489 c-38 -26 -55 -49 -37 -49 15 0 94 62 89 71 -8 11 -3 13 -52
-22z"/>
<path d="M1660 502 c0 -14 88 -73 94 -64 3 5 -14 23 -38 41 -46 32 -56 36 -56
23z"/>
<path d="M671 431 c-25 -22 -40 -41 -34 -44 6 -4 30 10 54 31 56 50 37 62 -20
13z"/>
<path d="M1620 452 c0 -16 78 -84 84 -73 4 5 -10 26 -31 45 -38 35 -53 43 -53
28z"/>
<path d="M717 381 c-26 -27 -34 -42 -25 -47 7 -4 24 8 45 32 55 65 39 77 -20
15z"/>
<path d="M1577 414 c-3 -6 11 -30 32 -54 21 -24 40 -39 43 -34 4 5 -11 29 -31
53 -21 24 -41 40 -44 35z"/>
<path d="M772 336 c-18 -25 -28 -47 -24 -50 10 -6 72 66 72 83 0 22 -17 10
-48 -33z"/>
<path d="M1527 373 c-7 -12 45 -92 61 -93 17 0 15 7 -15 48 -39 53 -40 55 -46
45z"/>
<path d="M842 307 c-46 -83 -26 -99 22 -17 41 70 40 66 23 73 -7 3 -25 -19
-45 -56z"/>
<path d="M1465 361 c-9 -16 66 -134 77 -123 7 7 -1 30 -27 71 -38 64 -40 66
-50 52z"/>
<path d="M890 264 c-23 -54 -23 -54 -10 -54 10 0 50 71 50 90 0 25 -21 6 -40
-36z"/>
<path d="M1410 302 c0 -20 47 -104 53 -95 8 13 -30 103 -43 103 -6 0 -10 -4
-10 -8z"/>
<path d="M956 243 c-18 -54 -19 -63 -7 -63 5 0 16 21 25 47 18 54 19 63 7 63
-5 0 -16 -21 -25 -47z"/>
<path d="M1357 283 c-9 -14 22 -103 35 -103 11 0 5 34 -16 84 -7 17 -15 26
-19 19z"/>
<path d="M1165 210 c0 -96 22 -96 27 0 2 57 0 70 -12 70 -12 0 -15 -14 -15
-70z"/>
<path d="M1022 219 c-7 -29 -10 -54 -8 -56 10 -10 24 8 29 39 3 18 8 41 12 51
5 11 2 17 -7 17 -9 0 -19 -19 -26 -51z"/>
<path d="M1294 239 c3 -17 6 -42 6 -55 0 -15 6 -24 15 -24 18 0 18 -3 4 60 -6
27 -15 50 -21 50 -6 0 -8 -12 -4 -31z"/>
<path d="M1090 221 c0 -22 -3 -46 -6 -55 -4 -11 -1 -16 10 -16 11 0 16 9 16
33 0 17 3 42 6 55 5 16 2 22 -10 22 -12 0 -16 -10 -16 -39z"/>
<path d="M1224 244 c3 -9 6 -33 6 -55 0 -29 4 -39 16 -39 11 0 14 5 10 16 -3
9 -6 33 -6 55 0 29 -4 39 -16 39 -11 0 -14 -5 -10 -16z"/>
<path d="M1583 215 c0 -8 4 -12 9 -9 5 3 6 10 3 15 -9 13 -12 11 -12 -6z"/>
</g>
</svg>
