<?xml version="1.0" standalone="no"?>
<!DOCTYPE svg PUBLIC "-//W3C//DTD SVG 20010904//EN"
 "http://www.w3.org/TR/2001/REC-SVG-20010904/DTD/svg10.dtd">
<svg version="1.0" xmlns="http://www.w3.org/2000/svg"
 width="484.000000pt" height="307.000000pt" viewBox="0 0 484.000000 307.000000"
 preserveAspectRatio="xMidYMid meet">
<g transform="translate(0.000000,307.000000) scale(0.100000,-0.100000)"
fill="#000000" stroke="none">
<path d="M404 2759 c-74 -28 -128 -79 -166 -157 l-33 -66 -3 -253 c-2 -157 0
-253 6 -253 5 0 12 9 15 20 7 25 18 25 51 -1 20 -16 24 -25 17 -32 -8 -8 -16
-5 -27 11 -8 12 -20 20 -25 16 -6 -4 -1 -16 12 -30 12 -13 19 -27 15 -31 -5
-5 -15 2 -23 15 -9 12 -22 22 -29 22 -21 0 -20 -1371 1 -1453 21 -81 60 -143
114 -183 86 -63 92 -64 638 -64 534 0 522 -1 465 53 -34 32 -42 34 -42 7 0
-25 -35 -34 -98 -26 -36 5 -44 4 -32 -5 13 -9 13 -10 -2 -5 -10 3 -124 6 -253
7 l-236 1 18 21 c64 72 30 66 360 65 164 0 285 -4 268 -8 -16 -4 -23 -8 -14
-9 24 -2 80 -68 73 -86 -9 -23 1937 -23 2012 0 78 24 143 80 184 159 l35 69 0
163 c0 90 1 164 2 164 2 0 201 -114 617 -354 134 -77 229 -126 246 -126 53 0
65 29 68 160 2 97 -1 121 -14 134 -13 13 -13 16 -1 16 10 0 14 13 13 45 0 26
-3 39 -8 32 -6 -9 -8 -9 -8 0 0 6 4 15 10 18 6 4 9 324 7 919 -2 883 -3 915
-21 935 -35 39 -65 28 -314 -116 -311 -179 -596 -343 -596 -343 -1 0 -1 73 -1
163 0 154 -1 165 -26 217 -34 74 -76 120 -141 156 l-53 29 -1515 2 c-1483 2
-1516 2 -1566 -18z m2820 -58 c35 -37 27 -55 -10 -20 -15 14 -23 17 -19 8 5
-13 -2 -16 -42 -14 -26 0 -54 -3 -60 -8 -9 -6 -13 -5 -13 2 0 8 -5 9 -18 2
-14 -7 -19 -6 -19 4 0 8 3 12 7 10 4 -2 17 6 29 19 15 16 19 26 12 31 -7 3
-10 3 -9 -2 2 -4 -1 -9 -5 -10 -5 0 -21 -13 -37 -28 l-27 -26 -311 -2 c-345
-2 -353 -1 -288 55 l35 30 292 -2 c213 0 297 -4 308 -13 12 -9 13 -9 7 1 -8
13 19 13 40 -1 6 -3 19 2 29 13 17 19 18 19 44 1 14 -11 39 -33 55 -50z
m-2335 36 c12 -9 13 -9 7 1 -6 9 0 11 23 7 16 -3 33 -1 36 5 3 5 13 10 21 10
9 0 12 -5 8 -11 -5 -8 -1 -8 13 0 11 6 23 8 26 5 3 -3 132 -5 287 -4 215 0
286 -2 298 -12 11 -9 14 -9 9 -1 -5 8 -1 11 12 10 15 -1 17 -4 7 -19 -6 -10
-14 -18 -18 -18 -5 0 -8 -5 -8 -12 0 -7 18 5 39 26 22 21 45 36 52 34 7 -2 -7
-22 -35 -49 -55 -51 -66 -57 -66 -34 0 14 -3 15 -14 6 -11 -9 -102 -13 -325
-14 -273 -2 -311 0 -306 13 3 9 -1 7 -10 -4 -8 -11 -18 -16 -22 -12 -5 4 7 21
25 37 18 16 29 29 26 29 -4 0 -24 -16 -45 -35 -49 -44 -74 -46 -31 -2 34 35
45 62 14 34 -10 -10 -22 -14 -27 -10 -4 5 -5 3 -2 -3 4 -6 -2 -19 -12 -28 -16
-15 -47 -17 -207 -20 -104 -1 -198 -6 -208 -11 -15 -6 -18 -5 -12 6 4 8 1 6
-7 -3 -13 -17 -15 -17 -31 0 -9 10 -13 22 -9 27 5 4 3 5 -4 2 -6 -4 -13 -1
-16 5 -2 7 -7 10 -11 7 -4 -4 4 -19 18 -34 25 -26 33 -45 20 -45 -3 0 -18 15
-35 32 -16 18 -29 27 -29 20 0 -6 5 -12 11 -12 6 0 8 -7 5 -16 -3 -8 -2 -13 3
-10 5 3 14 -1 21 -9 11 -14 7 -19 -12 -16 -5 0 -7 -5 -5 -11 1 -8 -7 -13 -19
-12 -11 1 -21 -5 -21 -12 0 -17 14 -18 20 -1 4 8 6 9 6 0 1 -6 -5 -18 -12 -25
-8 -9 -14 -51 -15 -128 -2 -81 -8 -124 -19 -146 -17 -33 -11 -90 8 -79 7 5 6
11 -1 20 -12 14 -5 55 9 55 10 0 8 -61 -2 -78 -5 -7 -18 -10 -30 -7 -12 2 -17
2 -11 -1 7 -3 10 -14 7 -24 -3 -11 -9 -17 -14 -14 -5 3 -6 -2 -3 -11 4 -8 1
-22 -6 -30 -9 -10 -9 -15 -1 -15 6 0 11 -4 11 -9 0 -5 -9 -7 -20 -4 -19 5 -20
14 -19 224 1 205 7 257 32 297 5 7 13 10 18 7 5 -3 6 1 3 9 -9 22 71 100 96
93 12 -3 17 0 14 8 -4 9 13 17 54 27 76 17 419 13 441 -5z m884 -16 c44 -49
53 -54 53 -31 0 10 -4 16 -9 13 -4 -2 -20 7 -34 21 l-26 26 280 0 c209 0 282
-3 292 -12 8 -7 11 -8 8 -3 -3 6 3 11 14 11 10 0 19 -1 19 -3 0 -5 -73 -73
-79 -73 -3 -1 -116 -1 -250 -1 l-243 -1 -34 33 c-19 18 -34 28 -34 21 0 -6 11
-19 25 -28 33 -22 27 -26 -35 -28 -41 -1 -49 2 -45 14 5 12 4 13 -6 3 -7 -7
-17 -13 -23 -13 -14 0 34 49 56 56 10 3 18 12 18 20 0 23 16 16 53 -25z m623
0 c-21 -21 -34 -41 -29 -43 4 -3 3 -3 -4 -2 -7 2 -15 -1 -18 -6 -4 -6 -14 -10
-23 -10 -11 0 0 17 33 50 27 28 56 50 64 50 9 0 1 -15 -23 -39z m1076 17 c32
-6 55 -15 52 -19 -3 -5 2 -9 10 -9 9 0 16 -5 16 -11 0 -5 4 -8 9 -4 6 3 14 -3
20 -12 6 -10 11 -14 11 -9 0 12 33 -34 47 -66 11 -24 9 -29 -17 -52 -17 -14
-30 -28 -30 -32 0 -5 16 7 35 26 43 42 59 32 19 -12 -16 -18 -21 -26 -12 -19
9 7 23 9 29 5 8 -5 9 -3 4 6 -6 9 -4 11 5 5 8 -5 11 -21 7 -46 -3 -21 -3 -40
0 -43 2 -2 5 -59 4 -125 0 -74 4 -119 10 -116 5 4 9 2 9 -4 0 -10 11 -9 48 3
12 4 22 12 22 18 0 6 3 8 6 5 4 -3 18 3 32 13 13 11 30 20 37 20 7 0 18 7 25
15 7 9 19 14 27 11 8 -3 16 1 19 9 3 8 12 11 21 8 12 -5 14 -3 8 7 -6 10 -1
12 23 8 17 -2 29 -1 26 3 -8 14 9 40 23 35 9 -4 11 -2 7 6 -5 7 -2 9 8 6 8 -4
20 2 27 14 8 13 19 18 32 15 10 -3 17 -1 14 3 -3 5 -1 11 5 15 5 3 10 1 10 -5
0 -6 16 5 37 25 32 31 47 40 56 33 1 -2 19 8 40 20 20 13 37 21 37 17 0 -4 21
12 46 34 26 23 53 41 62 41 9 0 7 -6 -9 -20 -13 -10 -19 -19 -12 -20 6 0 26
17 44 38 17 20 28 30 23 22 -7 -13 -5 -13 9 -1 9 7 15 17 12 21 -3 5 5 6 17 2
14 -3 19 -2 14 6 -4 7 -1 12 8 12 9 0 16 5 16 11 0 6 7 9 15 5 8 -3 15 -1 15
4 0 11 30 1 47 -16 9 -8 11 -68 10 -215 l-2 -204 -42 -3 -42 -3 -3 142 c-4
176 -7 180 -98 126 -34 -21 -66 -34 -72 -31 -7 4 -8 2 -4 -4 4 -7 -3 -14 -19
-18 -14 -3 -25 -10 -25 -16 0 -10 -59 -34 -74 -30 -4 2 -30 -18 -57 -43 -26
-25 -56 -45 -66 -44 -14 0 -15 2 -3 6 17 7 39 34 40 48 0 6 -17 -8 -38 -31
-35 -38 -67 -59 -84 -56 -5 1 -7 -1 -7 -5 3 -20 -2 -24 -16 -13 -9 7 -18 10
-22 6 -3 -3 -1 -6 5 -6 7 0 12 -4 12 -10 0 -5 -8 -10 -18 -10 -11 0 -32 -11
-48 -25 -16 -14 -35 -23 -42 -20 -7 3 -11 1 -8 -4 6 -8 -30 -25 -47 -22 -5 1
-6 -2 -3 -7 5 -9 -63 -47 -77 -44 -5 2 -6 -2 -3 -7 3 -5 -1 -12 -10 -15 -8 -3
-12 -2 -9 3 3 5 0 13 -6 17 -7 4 -9 3 -6 -3 8 -13 -19 -38 -58 -53 -26 -10
-32 -9 -47 10 -14 17 -17 44 -17 152 0 86 3 127 9 118 6 -8 10 -10 10 -4 0 5
-5 15 -11 21 -7 7 -10 36 -7 77 2 40 0 62 -6 59 -5 -4 -7 1 -3 11 4 9 0 31 -8
47 -9 16 -13 35 -9 41 4 7 3 8 -4 4 -7 -4 -19 6 -30 23 -10 17 -22 28 -25 24
-4 -3 -7 -2 -7 3 0 5 -10 10 -22 11 -11 1 -24 6 -27 10 -6 7 -24 9 -137 12
-34 1 -50 9 -85 41 l-43 39 89 3 c99 3 113 2 197 -14z m10 -126 c20 -13 47
-40 60 -60 22 -35 23 -47 26 -267 4 -253 7 -265 65 -265 19 0 101 41 241 122
116 67 297 171 401 231 105 60 197 116 206 124 16 13 17 -54 18 -942 1 -526
-2 -955 -6 -953 -5 1 -62 35 -128 74 -245 145 -669 387 -699 399 -33 13 -63 7
-83 -17 -8 -9 -13 -89 -15 -238 -3 -192 -6 -230 -21 -257 -26 -48 -65 -80
-113 -92 -30 -8 -487 -11 -1491 -11 l-1449 0 -50 25 c-28 14 -59 40 -74 62
l-25 37 0 966 0 966 27 41 c15 23 44 49 70 62 l43 21 1480 -2 1480 -3 37 -23z
m1138 -436 c0 -22 -5 -24 -54 -28 -49 -3 -54 -1 -53 17 1 27 15 35 65 35 38 0
42 -2 42 -24z m-4290 -32 c0 -12 -4 -12 -20 -4 -11 6 -18 15 -15 20 8 13 35 0
35 -16z m-21 -31 c0 -10 3 -30 7 -45 5 -21 3 -28 -9 -28 -10 0 -13 6 -10 20 3
11 0 20 -6 20 -6 0 -11 11 -11 25 0 15 6 25 14 25 8 0 15 -8 15 -17z m4307
-20 c3 -20 0 -22 -24 -17 -36 7 -65 -23 -60 -63 2 -20 9 -29 26 -31 20 -3 22
0 16 22 -5 22 -3 26 15 26 16 0 21 -6 21 -24 0 -45 -40 -68 -81 -46 -26 14
-27 114 -2 142 25 28 85 21 89 -9z m-56 -63 c0 -5 -5 -10 -11 -10 -5 0 -7 5
-4 10 3 6 8 10 11 10 2 0 4 -4 4 -10z m-4240 -311 c0 -279 0 -292 -21 -325
-23 -37 -28 -40 -49 -21 -8 6 -6 2 4 -10 l18 -22 23 27 c13 15 26 24 30 20 4
-3 -10 -24 -29 -46 -40 -44 -42 -48 -22 -55 10 -4 12 0 9 14 -3 10 0 19 6 19
15 0 44 -47 36 -59 -3 -6 -6 -116 -6 -246 l0 -235 -43 2 -44 3 -1 234 c0 157
3 240 11 255 11 20 10 20 -7 6 -17 -14 -18 -13 -11 5 13 33 8 666 -5 681 -13
16 2 19 18 3 7 -7 19 -3 39 15 16 14 32 26 36 26 4 0 7 -131 8 -291z m4300
197 c0 -17 -8 -27 -28 -34 -41 -14 -82 -4 -82 19 0 15 7 19 38 19 20 0 44 5
52 10 20 13 20 13 20 -14z m-10 -296 c0 -228 -1 -238 -21 -256 -11 -10 -26
-28 -31 -39 -7 -12 3 -7 26 14 20 19 36 30 36 25 0 -6 -5 -15 -10 -20 -7 -7
-8 -19 -1 -37 12 -30 -2 -37 -17 -10 -9 15 -13 13 -37 -15 -32 -38 -44 -41
-37 -7 2 15 9 22 16 18 6 -4 6 0 -2 9 -9 12 -12 80 -12 281 1 145 3 266 5 268
2 2 22 4 44 5 l41 0 0 -236z m-4290 -296 c0 -8 -5 -12 -10 -9 -6 4 -8 11 -5
16 9 14 15 11 15 -7z m4280 -60 c13 -33 13 -425 0 -458 -6 -16 -6 -27 0 -31
19 -12 10 -26 -12 -20 -18 5 -20 4 -8 -4 11 -8 12 -11 2 -11 -10 0 -9 -4 3
-16 14 -15 14 -18 0 -33 -19 -22 -19 -30 3 -55 11 -13 12 -17 2 -10 -28 20
-49 24 -43 8 3 -8 8 -12 11 -9 8 8 52 -36 52 -53 0 -12 -6 -10 -23 6 -13 12
-30 22 -38 22 -8 0 -2 -11 16 -27 16 -16 33 -27 37 -25 12 3 10 -56 -2 -63 -5
-3 -10 -15 -10 -26 0 -19 -23 -25 -54 -13 -14 5 -14 9 -4 23 7 9 9 13 4 9 -4
-4 -20 4 -34 18 -32 28 -45 31 -40 7 2 -10 11 -17 20 -15 9 1 19 -2 23 -8 8
-12 -34 -13 -53 -1 -19 12 -11 55 11 59 11 2 30 -6 43 -19 24 -22 59 -36 49
-19 -3 5 0 14 8 21 10 10 9 17 -11 36 -27 27 -32 28 -32 8 0 -8 4 -15 9 -15
11 0 24 -31 16 -38 -8 -8 -45 35 -45 53 0 8 9 24 20 35 16 16 18 24 9 47 -7
18 -10 125 -7 307 l3 280 25 28 c30 35 38 35 50 2z m-937 -215 c12 -6 33 -23
46 -37 13 -15 20 -22 17 -15 -4 7 1 11 13 10 11 0 18 -4 16 -8 -3 -3 14 -13
36 -22 23 -9 38 -21 34 -26 -3 -7 0 -8 9 -5 9 3 16 1 16 -5 0 -6 6 -11 14 -11
18 0 116 -60 116 -71 0 -5 7 -5 17 -2 11 4 14 3 9 -5 -5 -8 -2 -10 8 -6 9 3
16 1 16 -6 0 -6 5 -8 11 -4 8 4 8 1 1 -13 -12 -22 -42 -49 -42 -38 0 4 -7 2
-15 -5 -10 -8 -15 -9 -15 -2 0 6 -7 9 -15 6 -10 -4 -15 0 -15 12 0 16 -2 17
-10 4 -9 -13 -14 -7 -11 12 0 4 -5 5 -13 2 -7 -3 -28 8 -47 23 -18 15 -29 22
-25 15 5 -8 -8 -3 -27 9 -19 13 -33 27 -31 31 3 4 -3 5 -12 1 -10 -4 -15 -2
-12 3 4 5 -10 9 -30 9 l-37 0 -2 -55 c-1 -30 -4 -110 -6 -177 -2 -98 -6 -126
-20 -141 -9 -10 -14 -22 -10 -25 3 -4 1 -7 -6 -7 -7 0 -9 -5 -5 -11 9 -15 -64
-82 -78 -73 -7 4 -8 2 -4 -5 5 -7 -10 -19 -41 -34 -48 -22 -49 -22 -657 -24
-430 -2 -613 1 -623 8 -16 14 -17 33 -1 23 7 -4 8 -3 4 5 -5 8 -18 3 -42 -19
-56 -49 -56 -41 0 30 11 14 3 8 -18 -12 -36 -36 -40 -38 -104 -38 -81 0 -102
10 -82 37 13 17 13 17 -5 1 -15 -14 -16 -20 -5 -32 20 -26 -5 -19 -39 10 -17
14 -31 21 -31 15 0 -6 5 -11 10 -11 6 0 10 -4 10 -10 0 -6 -74 -9 -197 -7
-185 2 -198 3 -201 21 -4 16 0 18 29 12 24 -4 30 -3 19 4 -13 8 -12 10 3 10
10 0 16 4 12 9 -12 20 38 31 145 31 81 0 109 -3 104 -12 -5 -7 -3 -8 6 -3 7 4
16 2 22 -6 8 -11 9 -10 4 4 -8 27 15 20 50 -14 23 -22 34 -27 39 -18 6 8 4 10
-5 4 -10 -6 -12 -4 -7 8 6 15 -3 22 -26 18 -4 0 -7 3 -7 9 0 6 50 10 130 10
72 0 130 -4 130 -8 0 -10 46 -10 56 1 4 4 12 7 18 7 6 0 5 -5 -2 -12 -22 -22
-12 -32 11 -10 21 20 31 21 374 22 293 1 362 -2 406 -15 46 -13 62 -14 98 -3
24 6 98 13 164 14 141 3 174 13 238 74 42 40 63 71 37 55 -6 -3 -7 1 -4 9 3 9
9 14 13 12 3 -2 6 97 6 221 0 211 1 226 19 239 24 17 22 17 49 3z m417 -237
c0 -11 -69 -72 -82 -72 -10 0 -6 8 36 57 19 22 46 31 46 15z m64 -37 c14 -10
26 -22 26 -27 0 -6 6 -8 14 -5 8 3 22 -3 32 -14 10 -11 24 -17 31 -14 9 3 11
0 7 -7 -5 -7 -2 -9 7 -6 15 6 42 -16 32 -26 -4 -3 3 -6 15 -6 12 0 26 -9 32
-20 7 -13 21 -20 40 -20 16 0 32 -5 36 -12 5 -7 3 -8 -6 -3 -8 5 -11 4 -6 -3
4 -6 13 -9 21 -6 8 4 17 -1 21 -9 3 -9 12 -13 20 -10 10 3 14 -2 13 -18 0 -13
-3 -18 -6 -11 -3 9 -12 5 -28 -12 -23 -25 -67 -32 -58 -10 3 8 -2 11 -15 7
-11 -2 -23 0 -26 6 -5 7 0 9 11 6 10 -3 7 0 -7 6 -56 26 -105 53 -111 62 -3 5
-10 9 -15 9 -23 2 -44 11 -44 19 0 5 -5 9 -12 9 -7 0 -25 12 -42 28 -17 15
-24 18 -16 8 14 -18 14 -19 -8 -7 -12 7 -20 15 -18 19 3 5 0 14 -6 22 -8 12
-9 11 -4 -3 7 -22 -13 -18 -28 5 -7 12 -4 22 14 41 26 27 45 28 84 2z m-3816
-45 c3 -24 2 -25 -56 -22 -57 3 -59 5 -54 28 4 23 8 25 56 22 46 -3 51 -5 54
-28z m4289 -70 c0 -27 -2 -29 -15 -16 -8 8 -12 22 -9 30 10 26 24 18 24 -14z
m-4306 10 c10 -6 19 -15 19 -21 0 -6 -6 -7 -12 -3 -10 6 -10 4 0 -7 6 -7 12
-19 12 -27 0 -10 -3 -10 -16 2 -8 9 -23 17 -32 17 -23 2 -24 2 -44 -6 -14 -6
-18 -2 -18 18 0 35 48 49 91 27z m4066 -26 c-3 -3 -12 -4 -19 -1 -8 3 -5 6 6
6 11 1 17 -2 13 -5z m-4117 -44 c-8 -5 -17 -7 -19 -4 -3 3 1 9 9 14 8 5 17 7
19 4 3 -3 -1 -9 -9 -14z m38 -36 c4 -28 -29 -56 -48 -43 -11 8 -12 12 -2 16 6
2 12 13 12 22 0 36 33 40 38 5z m54 -64 c-18 -29 -42 -49 -58 -50 -16 0 -28
34 -13 39 26 8 49 43 49 74 l0 32 18 -35 c17 -32 17 -37 4 -60z m46 -17 c-2
-10 -10 -18 -17 -18 -8 0 -16 -6 -19 -13 -2 -7 2 -10 12 -6 9 3 24 3 34 -1 27
-13 43 -14 36 -4 -3 5 -9 7 -14 4 -5 -3 -12 0 -15 6 -12 18 0 19 30 3 24 -13
61 -16 182 -15 101 1 154 -2 158 -9 5 -8 13 -6 26 6 10 9 19 12 19 6 0 -11
-83 -94 -101 -100 -19 -7 -8 15 21 43 17 16 30 33 30 38 0 6 -9 0 -19 -12 -11
-13 -25 -20 -30 -16 -7 3 -8 0 -5 -9 10 -25 -30 -36 -130 -36 -99 0 -196 15
-196 31 0 4 -7 6 -16 2 -15 -5 -14 -3 1 21 10 15 15 29 11 33 -3 3 -6 1 -6 -5
0 -6 -8 -9 -17 -6 -15 5 -16 4 -3 -5 13 -10 13 -12 0 -20 -17 -12 -33 -4 -24
11 4 6 2 8 -4 4 -26 -16 -19 15 10 48 36 39 51 45 46 19z m1142 -63 c5 0 7 8
4 18 -5 14 -4 15 5 2 10 -13 12 -13 20 0 6 8 13 11 17 7 5 -4 -2 -17 -14 -30
-18 -17 -26 -19 -40 -11 -9 6 -18 20 -20 30 -3 18 -2 18 8 2 6 -10 15 -18 20
-18z m1591 20 c-19 -5 -44 -4 -55 0 -15 6 -5 9 34 8 50 0 52 -1 21 -8z m-1644
-22 c-2 -7 5 -23 16 -35 23 -26 16 -43 -8 -23 -22 18 -37 49 -30 60 9 14 27
12 22 -2z m-57 -52 c0 -15 -14 -35 -21 -30 -15 9 -10 34 6 34 8 0 15 -2 15 -4z
m795 -6 c3 -5 1 -10 -4 -10 -6 0 -11 5 -11 10 0 6 2 10 4 10 3 0 8 -4 11 -10z"/>
<path d="M3107 2714 c-34 -40 -27 -46 9 -7 23 25 25 25 44 8 11 -10 20 -15 20
-12 0 9 -33 47 -40 46 -3 0 -18 -16 -33 -35z"/>
<path d="M4290 2465 c-35 -35 -61 -67 -57 -71 4 -4 9 0 13 9 3 9 12 13 21 10
11 -4 14 -2 9 5 -8 14 37 59 55 54 11 -3 11 -1 -1 7 -13 9 -13 11 3 11 9 0 17
4 17 10 0 5 6 7 14 4 8 -3 17 -1 21 5 4 7 0 8 -11 4 -12 -4 -15 -3 -10 5 19
31 -16 6 -74 -53z"/>
<path d="M4260 2475 c-19 -20 -26 -23 -39 -12 -14 10 -14 10 -4 -4 16 -19 -2
-40 -25 -31 -14 5 -15 4 -2 -10 14 -14 19 -11 58 29 39 42 47 53 39 53 -2 0
-14 -11 -27 -25z"/>
<path d="M4073 2383 c4 -3 1 -13 -6 -22 -11 -14 -10 -14 5 -2 16 12 16 31 1
31 -4 0 -3 -3 0 -7z"/>
<path d="M4156 2375 c-9 -26 -7 -32 5 -12 6 10 9 21 6 23 -2 3 -7 -2 -11 -11z"/>
<path d="M3806 2221 c-3 -5 1 -14 8 -20 10 -9 16 -9 21 -1 4 6 1 9 -7 8 -7 -2
-12 3 -10 10 2 14 -4 16 -12 3z"/>
<path d="M1693 2203 c9 -2 23 -2 30 0 6 3 -1 5 -18 5 -16 0 -22 -2 -12 -5z"/>
<path d="M4451 2014 c0 -11 3 -14 6 -6 3 7 2 16 -1 19 -3 4 -6 -2 -5 -13z"/>
<path d="M837 1983 c-4 -3 -7 -191 -7 -418 0 -306 3 -414 12 -423 16 -16 520
-17 549 -2 16 9 19 21 18 63 -1 29 -6 58 -12 65 -8 10 -56 12 -201 12 l-191
-2 -2 344 c-1 189 -3 349 -3 356 0 8 -22 12 -78 12 -43 0 -82 -3 -85 -7z m83
-12 c0 -5 -15 -23 -32 -41 -31 -30 -31 -31 -5 -15 15 9 27 21 27 25 0 8 29 21
58 26 10 2 12 -65 12 -327 l-1 -330 -42 -48 c-23 -26 -52 -55 -64 -65 -37 -28
-28 4 13 46 33 35 38 58 11 58 -7 0 -6 -4 3 -10 8 -5 12 -10 10 -12 -3 -2 -17
-14 -33 -27 l-27 -25 4 88 c3 50 11 95 18 104 11 13 10 15 -5 9 -11 -4 -16 -3
-12 3 3 5 1 19 -5 30 -14 26 2 26 25 0 20 -22 35 -26 35 -10 0 6 -7 10 -15 10
-29 0 -37 52 -36 248 0 123 -3 192 -10 192 -6 0 -5 9 3 23 7 12 11 27 9 32 -1
6 1 7 4 3 4 -4 17 -1 29 7 24 17 26 18 26 6z m70 -702 c0 -16 42 -20 211 -20
l176 0 -1 -39 -1 -40 -247 -5 c-152 -3 -249 -1 -253 5 -7 11 84 107 102 107 7
0 13 -4 13 -8z"/>
<path d="M956 1335 c-9 -26 -7 -32 5 -12 6 10 9 21 6 23 -2 3 -7 -2 -11 -11z"/>
<path d="M1487 1983 c-4 -3 -7 -192 -7 -418 0 -318 3 -415 13 -422 14 -12 119
-17 147 -8 19 6 20 18 20 415 0 225 -3 415 -6 424 -5 13 -22 16 -83 16 -43 0
-81 -3 -84 -7z m126 -33 c23 -22 38 -70 22 -70 -30 0 -95 61 -95 89 0 18 47 6
73 -19z m-48 -68 c-3 -7 -1 -10 4 -7 5 3 21 0 35 -6 l26 -12 0 -284 c0 -175
-4 -292 -10 -303 -8 -16 -8 -18 5 -14 18 7 20 -7 3 -24 -7 -7 -8 -12 -4 -12 5
0 2 -8 -5 -17 -10 -11 -10 -14 -1 -9 8 5 12 0 12 -13 0 -17 -5 -19 -32 -16
-18 2 -38 -1 -46 -7 -22 -18 -47 13 -33 41 7 11 8 21 4 21 -4 0 -10 57 -11
126 -4 126 -4 127 18 121 17 -4 19 -3 9 9 -6 7 -15 11 -20 8 -5 -3 -6 1 -3 9
3 8 1 18 -5 22 -6 3 -11 11 -11 17 0 7 13 0 28 -15 38 -37 53 -34 16 2 l-29
29 0 205 0 205 27 -31 c15 -18 25 -38 23 -45z"/>
<path d="M1539 1883 c-13 -16 -12 -17 4 -4 9 7 17 15 17 17 0 8 -8 3 -21 -13z"/>
<path d="M1570 1476 c0 -2 7 -7 16 -10 8 -3 12 -2 9 4 -6 10 -25 14 -25 6z"/>
<path d="M1570 1431 c0 -5 7 -12 16 -15 14 -5 15 -4 4 9 -14 17 -20 19 -20 6z"/>
<path d="M1590 1229 c0 -6 -7 -9 -15 -6 -17 7 -27 -4 -17 -20 4 -6 16 -1 32
13 13 13 19 24 12 24 -6 0 -12 -5 -12 -11z"/>
<path d="M1533 1179 c-2 -23 3 -25 10 -4 4 8 3 16 -1 19 -4 3 -9 -4 -9 -15z"/>
<path d="M1585 1189 c-4 -6 -5 -12 -2 -15 2 -3 7 2 10 11 7 17 1 20 -8 4z"/>
<path d="M1721 1976 c-10 -12 -9 -20 2 -43 8 -15 58 -145 112 -288 131 -351
185 -488 197 -502 7 -8 37 -13 84 -13 89 0 80 -12 167 205 36 88 96 234 135
325 103 243 122 291 122 312 0 16 -9 18 -89 18 -84 0 -90 -1 -97 -22 -3 -13
-55 -147 -114 -298 -60 -151 -111 -284 -115 -295 -5 -15 -13 1 -30 60 -13 44
-64 186 -113 315 l-88 235 -81 3 c-61 2 -83 -1 -92 -12z m89 -11 c0 -9 -12
-28 -26 -42 -24 -23 -27 -24 -36 -10 -6 12 -4 24 9 42 20 27 53 33 53 10z m60
9 c0 -4 -10 -22 -21 -41 -27 -44 -47 -30 -22 15 16 28 43 44 43 26z m637 -28
c-7 -12 -24 -53 -37 -93 -17 -50 -28 -69 -35 -63 -8 7 -11 -1 -10 -27 0 -19
-5 -42 -13 -49 -7 -8 -11 -14 -8 -14 4 0 -2 -17 -13 -39 -11 -21 -17 -42 -13
-46 4 -5 1 -5 -7 0 -10 6 -11 2 -6 -15 5 -17 4 -21 -6 -15 -9 6 -11 3 -6 -8 3
-9 0 -20 -8 -24 -7 -5 -16 -21 -19 -36 -3 -16 -10 -34 -15 -41 -6 -7 -8 -16
-4 -20 4 -4 3 -10 -2 -14 -15 -10 -35 -50 -35 -67 0 -8 -4 -15 -10 -15 -5 0
-10 -14 -10 -31 0 -19 -4 -28 -11 -24 -6 4 -9 1 -8 -6 1 -8 -5 -31 -14 -51
-10 -21 -17 -42 -17 -49 0 -6 -6 -9 -14 -6 -10 4 -12 0 -9 -14 5 -17 0 -19
-46 -19 -34 0 -51 4 -51 13 0 8 -4 7 -11 -3 -8 -11 -12 -12 -16 -2 -2 6 -8 10
-12 7 -4 -2 -7 9 -6 25 1 16 -1 27 -4 25 -4 -2 -15 18 -25 43 -9 26 -23 58
-29 72 -6 14 -9 31 -8 39 1 8 -2 10 -11 5 -7 -4 -10 -4 -6 1 4 4 3 16 -3 26
-7 14 -6 19 3 19 10 0 10 2 1 8 -12 7 -33 54 -33 73 0 5 7 9 15 9 8 0 15 5 15
12 0 14 40 58 52 58 4 0 8 -7 8 -15 0 -8 5 -15 11 -15 5 0 7 -4 4 -10 -3 -5
-1 -10 5 -10 7 0 9 -8 5 -20 -4 -11 -2 -20 4 -20 6 0 16 -20 22 -45 6 -25 15
-48 20 -50 4 -3 6 -12 2 -20 -3 -8 0 -15 6 -15 6 0 11 -7 11 -17 0 -9 3 -13 7
-10 3 4 13 1 21 -6 13 -10 14 -9 8 1 -4 6 -1 18 6 26 8 7 20 33 27 57 7 24 20
57 28 72 8 15 12 34 9 42 -3 8 0 14 7 12 7 -1 11 6 9 17 -2 12 1 16 9 10 9 -5
10 -2 6 9 -3 9 5 31 19 52 27 40 30 49 12 40 -7 -4 -4 1 7 10 11 8 20 21 20
28 1 28 18 84 33 107 9 14 17 33 19 43 2 10 10 34 20 55 9 20 16 40 15 44 -1
3 30 6 68 5 68 0 70 -1 57 -21z m-613 -32 c4 -9 2 -13 -5 -8 -7 4 -2 -7 11
-23 12 -17 23 -42 23 -56 1 -14 6 -23 11 -19 5 3 7 -2 3 -10 -3 -9 -2 -19 2
-24 4 -5 18 -37 31 -72 l23 -63 -22 -20 c-11 -11 -28 -31 -37 -44 -18 -28 -34
-33 -34 -10 0 8 -4 15 -9 15 -5 0 -7 10 -3 22 3 14 2 19 -6 14 -7 -4 -12 -1
-12 7 0 7 -9 33 -21 56 -11 24 -21 58 -22 76 -1 18 -5 31 -10 28 -4 -2 -10 4
-13 14 -3 10 -12 32 -19 49 -12 27 -12 35 0 50 8 11 15 14 15 9 0 -18 37 -14
56 6 21 23 30 24 38 3z m80 -338 c-38 -42 -63 -61 -71 -52 -2 2 20 26 49 54
29 28 55 49 57 46 2 -2 -14 -23 -35 -48z"/>
<path d="M2451 1854 c0 -11 3 -14 6 -6 3 7 2 16 -1 19 -3 4 -6 -2 -5 -13z"/>
<path d="M2210 1502 c0 -5 7 -9 15 -9 8 0 12 4 9 9 -3 4 -9 8 -15 8 -5 0 -9
-4 -9 -8z"/>
<path d="M1984 1379 c-3 -6 -2 -15 3 -20 5 -5 9 -1 9 11 0 23 -2 24 -12 9z"/>
<path d="M2590 1566 c0 -376 2 -425 16 -430 29 -11 537 -6 551 6 20 17 17 124
-4 132 -9 4 -100 6 -202 6 l-186 -2 -3 116 -3 116 180 0 181 0 5 23 c4 13 5
43 3 68 l-3 44 -182 3 -183 2 0 100 0 100 69 0 c46 0 71 4 74 13 4 9 7 9 15
-1 6 -9 38 -12 118 -10 l109 3 0 65 0 65 -277 3 -278 2 0 -424z m477 389 c17
-15 23 -24 14 -25 -8 0 -22 7 -32 16 -21 19 -46 10 -29 -11 6 -8 18 -11 26 -8
8 3 14 -1 14 -11 0 -21 -28 -21 -52 1 -23 20 -23 39 0 52 24 15 28 14 59 -14z
m38 15 c3 -5 2 -10 -4 -10 -5 0 -13 5 -16 10 -3 6 -2 10 4 10 5 0 13 -4 16
-10z m-129 -16 c-3 -9 -6 -18 -6 -20 0 -3 -4 -3 -9 0 -5 4 -20 -7 -34 -23 -14
-17 -28 -27 -31 -24 -3 4 -6 2 -6 -3 0 -5 -29 -7 -65 -6 -52 3 -66 1 -71 -12
-3 -9 -14 -16 -23 -16 -10 0 -12 -3 -5 -8 18 -11 10 -58 -9 -54 -12 2 -10 -5
9 -23 29 -29 25 -48 -4 -22 -10 10 -23 17 -28 17 -5 0 -2 -5 6 -10 13 -9 13
-11 0 -20 -10 -7 -11 -10 -2 -11 27 -3 31 -4 38 -11 4 -5 1 -8 -7 -8 -11 0
-11 -2 1 -10 12 -8 12 -10 1 -10 -8 0 -11 -3 -8 -7 4 -3 1 -13 -5 -22 -10 -13
-10 -14 2 -3 19 16 33 15 27 -2 -4 -11 6 -16 36 -21 39 -7 92 -41 109 -70 6
-10 -5 -13 -45 -13 -53 0 -84 -8 -102 -26 -11 -12 -14 -247 -4 -240 4 2 9 -3
13 -11 4 -12 26 -15 109 -15 58 0 118 -3 136 -6 l31 -6 -27 -22 c-15 -11 -31
-20 -35 -18 -5 1 -7 -3 -6 -10 4 -17 -70 -26 -213 -27 -89 -1 -119 2 -128 13
-7 8 -8 16 -4 19 4 3 6 69 3 146 -4 118 -3 140 9 136 11 -5 12 -3 1 10 -11 13
-9 21 16 48 16 17 37 37 46 45 27 20 40 49 23 49 -8 0 -12 -3 -10 -7 2 -4 -12
-22 -32 -41 -21 -20 -33 -27 -30 -17 3 10 1 20 -5 24 -8 5 -9 -2 -5 -23 3 -17
1 -35 -6 -42 -18 -18 -29 -13 -17 8 6 12 10 102 10 224 0 112 3 207 7 210 3 4
85 7 181 7 155 0 173 -2 168 -16z m143 -63 c1 -9 -6 -11 -25 -7 -16 4 -23 3
-19 -3 3 -7 0 -8 -10 -5 -12 5 -13 9 -4 20 6 8 18 14 25 14 8 0 14 10 15 23 1
21 1 21 9 -3 4 -14 8 -31 9 -39z m-140 7 c0 -13 -3 -17 -6 -10 -7 19 -23 4
-16 -16 5 -16 5 -16 -12 0 -15 14 -16 20 -5 32 19 23 40 20 39 -6z m41 -17 c0
-5 -7 -11 -14 -14 -10 -4 -13 -1 -9 9 6 15 23 19 23 5z m73 -261 c15 -1 7 -63
-10 -76 -20 -15 -37 -18 -29 -5 3 4 -15 7 -39 5 -41 -4 -49 -1 -81 32 -20 19
-38 33 -41 31 -2 -3 13 -21 34 -41 23 -21 32 -35 23 -35 -8 0 -31 14 -50 32
-69 66 -72 63 63 60 67 -1 125 -2 130 -3z m-21 -372 c-7 -7 -12 -17 -12 -22 0
-6 4 -5 9 3 9 14 70 24 72 12 5 -37 3 -64 -6 -71 -6 -5 -40 -8 -75 -6 -36 1
-73 -1 -82 -6 -11 -5 -18 -5 -18 1 0 11 101 100 115 101 5 0 4 -5 -3 -12z"/>
<path d="M2655 1600 c3 -5 8 -10 11 -10 2 0 4 5 4 10 0 6 -5 10 -11 10 -5 0
-7 -4 -4 -10z"/>
<path d="M3015 1189 c-4 -6 -4 -13 -1 -16 3 -4 6 -1 6 6 0 7 5 9 12 5 7 -4 8
-3 4 4 -9 15 -13 15 -21 1z"/>
<path d="M1972 870 c0 -14 2 -19 5 -12 2 6 2 18 0 25 -3 6 -5 1 -5 -13z"/>
<path d="M1951 864 c0 -11 3 -14 6 -6 3 7 2 16 -1 19 -3 4 -6 -2 -5 -13z"/>
<path d="M3128 713 c6 -2 18 -2 25 0 6 3 1 5 -13 5 -14 0 -19 -2 -12 -5z"/>
<path d="M3036 675 c-9 -26 -7 -32 5 -12 6 10 9 21 6 23 -2 3 -7 -2 -11 -11z"/>
<path d="M430 606 c0 -9 5 -16 10 -16 6 0 10 4 10 9 0 6 -4 13 -10 16 -5 3
-10 -1 -10 -9z"/>
<path d="M240 1330 c0 -5 5 -10 11 -10 5 0 7 5 4 10 -3 6 -8 10 -11 10 -2 0
-4 -4 -4 -10z"/>
<path d="M3955 810 c3 -5 8 -10 11 -10 2 0 4 5 4 10 0 6 -5 10 -11 10 -5 0 -7
-4 -4 -10z"/>
<path d="M3586 523 c-6 -14 -5 -15 5 -6 7 7 10 15 7 18 -3 3 -9 -2 -12 -12z"/>
<path d="M3523 405 c0 -8 4 -12 9 -9 5 3 6 10 3 15 -9 13 -12 11 -12 -6z"/>
<path d="M4086 767 c3 -10 9 -15 12 -12 3 3 0 11 -7 18 -10 9 -11 8 -5 -6z"/>
<path d="M4712 2010 c0 -14 2 -19 5 -12 2 6 2 18 0 25 -3 6 -5 1 -5 -13z"/>
<path d="M188 433 c7 -3 16 -2 19 1 4 3 -2 6 -13 5 -11 0 -14 -3 -6 -6z"/>
</g>
</svg>
