<?xml version="1.0" encoding="UTF-8"?>
<svg id="Layer_2" data-name="Layer 2" xmlns="http://www.w3.org/2000/svg" viewBox="0 0 53.19 53.19">
  <defs>
    <style>
      .cls-1 {
        fill: none;
      }
    </style>
  </defs>
  <g id="Layer_1-2" data-name="Layer 1">
    <g>
      <g>
        <path d="M4.84,13.48H14.78c-.96,1.13-1.85,2.26-2.84,3.3-.21,.22-.76,.15-1.15,.16-.76,.02-1.53,0-2.39,0v20.02c.87,0,1.78-.07,2.67,.03,.44,.05,.93,.3,1.24,.62,.84,.86,1.59,1.79,2.46,2.79-.3,.05-.56,.12-.82,.12-2.71,0-5.41-.01-8.12,.02-.77,0-1.1-.16-1.1-1.03,.03-8.41,.02-16.82,.02-25.23,0-.25,.05-.5,.08-.81Z"/>
        <path d="M38.39,40.46c.95-1.12,1.75-2.11,2.62-3.04,.23-.25,.66-.41,1.02-.43,.9-.06,1.81-.02,2.79-.02V17.1c-.12-.06-.19-.14-.24-.12-3.13,.8-4.49-1.54-6.19-3.49h9.97c.02,.37,.07,.75,.07,1.14,0,8.23-.01,16.46,.02,24.68,0,.95-.24,1.27-1.22,1.24-2.59-.07-5.19-.02-7.79-.03-.32,0-.63-.04-1.05-.06Z"/>
        <path d="M18.57,17.9c2.47-2.15,5.23-3.2,8.33-3.05,3.2,.16,2.61-.06,2.73,2.74,.09,2,.02,4,.02,6.1-3.62-1.89-7.29-3.81-11.08-5.79Z"/>
        <path d="M23.63,30.28c3.56,1.87,7.21,3.78,10.99,5.76-2.18,1.93-4.61,2.87-7.33,3.04-.97,.06-1.97-.08-2.94-.24-.27-.04-.69-.48-.69-.74-.05-2.59-.03-5.18-.03-7.83Z"/>
        <path d="M38.25,23.61c-2.39,1.51-4.74,3.01-7.28,4.62-.19-4.32-.36-8.44-.55-12.77,4.05,1.53,6.54,4.19,7.83,8.16Z"/>
        <path d="M17.92,18.57c2.5,1.31,4.96,2.6,7.59,3.97-3.6,2.28-7.09,4.5-10.58,6.72-1.38-2.47,.17-8.03,2.99-10.69Z"/>
        <path d="M35.25,35.35c-2.44-1.28-4.92-2.58-7.56-3.97,3.62-2.3,7.11-4.52,10.62-6.74,1.21,3.44-.5,8.52-3.06,10.71Z"/>
        <path d="M22.77,38.49c-4.04-1.53-6.53-4.19-7.84-8.16,2.35-1.5,4.71-2.99,7.28-4.63,.19,4.34,.37,8.46,.56,12.78Z"/>
        <path d="M8.18,12.79v-2.26h3.89v2.26h-3.89Z"/>
        <path d="M13.81,27.07h-2.98c0-.09,0-.18,0-.27h2.98c0,.09,0,.18,0,.27Z"/>
        <path d="M39.39,26.84h2.95c0,.09,0,.18,0,.27h-2.95c0-.09,0-.18,0-.27Z"/>
        <path d="M18.96,13.19c.48,.85,.96,1.69,1.5,2.63-.86-.21-1.7-1.54-1.5-2.63Z"/>
        <path d="M34.7,13.43c-.5,.85-.99,1.69-1.49,2.54l-.41-.22c.48-.85,.96-1.7,1.44-2.54,.15,.08,.31,.15,.46,.23Z"/>
        <path d="M15.4,20.77c-.83-.48-1.67-.96-2.54-1.46,.55-.36,1.58,.11,2.7,1.13-.05,.11-.11,.22-.16,.33Z"/>
        <path d="M40.34,19.29c-.85,.49-1.71,.97-2.56,1.46-.08-.13-.15-.26-.23-.4,.85-.49,1.69-.99,2.54-1.48,.08,.14,.17,.28,.25,.42Z"/>
        <path d="M20.38,38.22c-.48,.83-.95,1.65-1.43,2.48-.13-.08-.26-.15-.39-.23,.47-.84,.94-1.67,1.41-2.51l.42,.26Z"/>
        <path d="M34.21,40.69c-.47-.83-.94-1.66-1.41-2.49,.14-.08,.28-.16,.42-.25,.48,.83,.96,1.65,1.44,2.48-.15,.09-.29,.17-.44,.26Z"/>
        <path d="M40.08,35.03c-.83-.47-1.67-.94-2.55-1.45,.65-.35,2.1,.38,2.55,1.45Z"/>
        <path d="M15.64,33.55c-.84,.49-1.67,.98-2.51,1.46-.08-.13-.16-.27-.24-.4,.83-.49,1.67-.98,2.5-1.48,.08,.14,.17,.28,.25,.41Z"/>
        <path d="M26.72,11.29v2.79c-.08,0-.16,0-.24,0v-2.79c.08,0,.16,0,.24,0Z"/>
        <path d="M26.74,39.84v2.82c-.07,0-.15,0-.22,0v-2.82c.07,0,.15,0,.22,0Z"/>
      </g>
      <rect class="cls-1" width="53.19" height="53.19"/>
    </g>
  </g>
</svg>