<svg width="12" height="12" viewBox="0 0 12 12" fill="none" xmlns="http://www.w3.org/2000/svg">
<path d="M2.86153 6C2.86153 6.25496 2.65496 6.46154 2.4 6.46154H1.47692C1.22196 6.46154 1.01538 6.25496 1.01538 6C1.01538 5.74504 1.22196 5.53846 1.47692 5.53846H2.4C2.65498 5.53846 2.86153 5.74504 2.86153 6ZM2.86153 3.04615C2.86153 2.79119 2.65496 2.58462 2.4 2.58462H1.47692C1.22196 2.58462 1.01538 2.79119 1.01538 3.04615C1.01538 3.30111 1.22196 3.50769 1.47692 3.50769H2.4C2.65498 3.50769 2.86153 3.30111 2.86153 3.04615ZM2.86153 8.95387C2.86153 8.69886 2.65496 8.49233 2.4 8.49233H1.47692C1.22196 8.49233 1.01538 8.69886 1.01538 8.95387C1.01538 9.20883 1.22196 9.41541 1.47692 9.41541H2.4C2.65498 9.41541 2.86153 9.20881 2.86153 8.95387ZM10.9846 1.47692V10.5231C10.9846 11.3387 10.3233 12 9.50774 12H3.0462C2.23058 12 1.56928 11.3387 1.56928 10.5231V9.78462H2.40005C2.85809 9.78462 3.23082 9.41185 3.23082 8.95385C3.23082 8.49581 2.85809 8.12302 2.40005 8.12302H1.56923V6.83072H2.4C2.85803 6.83072 3.23077 6.45798 3.23077 5.99995C3.23077 5.54191 2.85803 5.16918 2.4 5.16918H1.56923V3.87687H2.4C2.85803 3.87687 3.23077 3.50414 3.23077 3.0461C3.23077 2.58806 2.85803 2.21533 2.4 2.21533H1.56923V1.47692C1.56923 0.661303 2.23053 0 3.04615 0H9.50769C10.3233 0 10.9846 0.661276 10.9846 1.47692ZM5.12972 4.37796C5.12972 5.16443 5.76738 5.80208 6.55384 5.80208C7.34033 5.80208 7.97796 5.16443 7.97796 4.37796C7.97796 3.5915 7.34033 2.95382 6.55384 2.95382C5.76741 2.95385 5.12972 3.5915 5.12972 4.37796ZM8.76923 7.85924C8.76923 6.98547 8.06068 6.2769 7.18688 6.2769H5.92099C5.04703 6.2769 4.33846 6.98549 4.33846 7.85924V8.49231H8.76923V7.85924Z" fill="white"/>
</svg>
