<svg width="12" height="12" viewBox="0 0 12 12" fill="none" xmlns="http://www.w3.org/2000/svg">
<g clip-path="url(#clip0_49_450)">
<path d="M2.50969 6.88977C2.39719 7.04973 2.43677 7.2699 2.59664 7.38102L2.83826 7.54881C2.4439 7.92932 1.91503 8.14461 1.36266 8.14461H0.703125V7.3829C0.703125 7.18874 0.545719 7.03133 0.351562 7.03133C0.157406 7.03133 0 7.18874 0 7.3829V10.9688C0 11.163 0.157406 11.3204 0.351562 11.3204C0.545719 11.3204 0.703125 11.163 0.703125 10.9688V10.254H1.17966C2.44134 10.254 3.67519 9.72346 4.55166 8.73873L4.90336 8.98297C5.06304 9.09449 5.28457 9.05357 5.39437 8.89204L5.63531 8.53836L2.7832 6.50141L2.50969 6.88977Z" fill="white"/>
<path d="M11.8467 6.92118L11.7171 6.83258L9.02063 8.98719L9.79219 9.54266C9.94287 9.65111 10.1536 9.62371 10.271 9.47797L11.922 7.43235C12.0514 7.27192 12.0154 7.03619 11.8467 6.92118Z" fill="white"/>
<path d="M11.3008 5.69477L4.54075 0.812882C4.23712 0.593554 3.81553 0.650554 3.58096 0.942539L1.3593 3.70781C1.10664 4.02237 1.17042 4.48584 1.49882 4.72038L7.47939 8.99128C7.6072 9.08255 7.78026 9.07805 7.90314 8.97984L11.3144 6.25446C11.4957 6.10966 11.4894 5.83097 11.3008 5.69477ZM8.81249 6.31648C8.61834 6.31648 8.46093 6.15907 8.46093 5.96491C8.46093 5.77076 8.61834 5.61335 8.81249 5.61335C9.00665 5.61335 9.16406 5.77076 9.16406 5.96491C9.16406 6.15907 9.00665 6.31648 8.81249 6.31648Z" fill="white"/>
</g>
<defs>
<clipPath id="clip0_49_450">
<rect width="12" height="12" fill="white"/>
</clipPath>
</defs>
</svg>
