<svg width="12" height="12" viewBox="0 0 12 12" fill="none" xmlns="http://www.w3.org/2000/svg">
<g clip-path="url(#clip0_49_446)">
<path d="M11.7 5.19599C11.6996 5.19572 11.6993 5.19535 11.6991 5.19508L6.80401 0.300202C6.59536 0.0914614 6.31796 -0.0234375 6.02288 -0.0234375C5.72781 -0.0234375 5.4504 0.0914614 5.24166 0.300202L0.349165 5.19261C0.347517 5.19426 0.345777 5.19599 0.344221 5.19764C-0.0842469 5.62858 -0.0835145 6.32777 0.346326 6.75761C0.542707 6.95409 0.801985 7.06779 1.0793 7.07979C1.09065 7.08089 1.102 7.08144 1.11345 7.08144H1.30846V10.6837C1.30846 11.3966 1.88854 11.9766 2.60146 11.9766H4.51656C4.71074 11.9766 4.86812 11.8191 4.86812 11.625V8.8008C4.86812 8.47551 5.1328 8.21092 5.45809 8.21092H6.58767C6.91296 8.21092 7.17755 8.47551 7.17755 8.8008V11.625C7.17755 11.8191 7.33493 11.9766 7.52911 11.9766H9.44421C10.1572 11.9766 10.7372 11.3966 10.7372 10.6837V7.08144H10.9181C11.2131 7.08144 11.4905 6.96654 11.6993 6.7577C12.1296 6.32722 12.1298 5.62675 11.7 5.19599ZM11.2021 6.26057C11.1262 6.33647 11.0253 6.37831 10.9181 6.37831H10.3857C10.1915 6.37831 10.0341 6.53569 10.0341 6.72987V10.6837C10.0341 11.0089 9.7695 11.2735 9.44421 11.2735H7.88067V8.8008C7.88067 8.08788 7.30069 7.5078 6.58767 7.5078H5.45809C4.74508 7.5078 4.165 8.08788 4.165 8.8008V11.2735H2.60146C2.27626 11.2735 2.01158 11.0089 2.01158 10.6837V6.72987C2.01158 6.53569 1.8542 6.37831 1.66002 6.37831H1.1367C1.13121 6.37794 1.12581 6.37767 1.12022 6.37758C1.01549 6.37575 0.91725 6.33418 0.843642 6.26048C0.687086 6.10393 0.687086 5.84913 0.843642 5.69249C0.843733 5.69249 0.843733 5.69239 0.843825 5.6923L0.8441 5.69203L5.73898 0.797334C5.81478 0.721437 5.91558 0.679689 6.02288 0.679689C6.13009 0.679689 6.23089 0.721437 6.30679 0.797334L11.2006 5.69102C11.2013 5.69175 11.2021 5.69249 11.2029 5.69322C11.3586 5.85005 11.3583 6.10429 11.2021 6.26057Z" fill="#364152"/>
</g>
<defs>
<clipPath id="clip0_49_446">
<rect width="12" height="12" fill="white"/>
</clipPath>
</defs>
</svg>
