<svg width="12" height="12" viewBox="0 0 12 12" fill="none" xmlns="http://www.w3.org/2000/svg">
<g clip-path="url(#clip0_49_445)">
<path d="M11.915 7.17759L11.087 6.21166C11.6778 5.54515 11.9996 4.73217 11.9996 3.89084C11.9996 1.71103 9.88479 0.000328064 7.40602 0.000328064C4.88604 0.000328064 2.83585 1.7456 2.83585 3.89084C2.83585 3.94472 2.83763 3.99874 2.84028 4.05272C1.16328 4.71909 5.60678e-06 6.15555 5.60678e-06 7.81652C5.60678e-06 8.74741 0.355599 9.64062 1.00801 10.3643L0.0869822 11.4169C-0.00383815 11.5207 -0.0255881 11.6681 0.0314353 11.7937C0.0884353 11.9193 0.213615 12 0.351568 12H5.29672C5.33583 12 5.45904 11.9776 5.48422 11.9753C6.64395 11.8683 7.71896 11.4131 8.52669 10.6837C9.37953 9.91366 9.88418 8.88258 9.86604 7.75793H11.6481C11.9478 7.75793 12.1101 7.4052 11.915 7.17759ZM5.36703 11.2798C5.3363 11.2823 5.23004 11.2914 5.20885 11.2969H1.12632L1.75083 10.5831C1.87505 10.4412 1.86509 10.2265 1.72826 10.0967C1.06719 9.46924 0.703107 8.65948 0.703107 7.81652C0.703107 5.91077 2.60588 4.35961 4.94515 4.35961C7.2713 4.35961 9.16376 5.91037 9.16376 7.81652C9.16376 9.59866 7.50354 11.1052 5.36703 11.2798ZM9.78507 7.05485C9.36087 5.09904 7.33231 3.65651 4.94515 3.65651C4.45714 3.65651 3.98555 3.71658 3.53994 3.82788C3.58081 2.0993 5.29927 0.703476 7.40602 0.703476C9.55126 0.703476 11.2965 2.13333 11.2965 3.89086C11.2965 4.64264 10.9672 5.37185 10.3693 5.94417C10.2345 6.07324 10.224 6.28519 10.3455 6.42691L10.8837 7.05485H9.78507Z" fill="#364152"/>
<path d="M2.83585 7.05466C2.44817 7.05466 2.13275 7.37009 2.13275 7.75777C2.13275 8.14545 2.44817 8.46087 2.83585 8.46087C3.22353 8.46087 3.53895 8.14545 3.53895 7.75777C3.53895 7.37009 3.22356 7.05466 2.83585 7.05466Z" fill="#364152"/>
<path d="M4.94514 7.05466C4.55746 7.05466 4.24203 7.37009 4.24203 7.75777C4.24203 8.14545 4.55746 8.46087 4.94514 8.46087C5.33282 8.46087 5.64824 8.14545 5.64824 7.75777C5.64824 7.37009 5.33284 7.05466 4.94514 7.05466Z" fill="#364152"/>
<path d="M7.05445 7.05466C6.66677 7.05466 6.35135 7.37009 6.35135 7.75777C6.35135 8.14545 6.66677 8.46087 7.05445 8.46087C7.44213 8.46087 7.75755 8.14545 7.75755 7.75777C7.75755 7.37009 7.44215 7.05466 7.05445 7.05466Z" fill="#364152"/>
</g>
<defs>
<clipPath id="clip0_49_445">
<rect width="12" height="12" fill="white"/>
</clipPath>
</defs>
</svg>
