<svg width="12" height="12" viewBox="0 0 12 12" fill="none" xmlns="http://www.w3.org/2000/svg">
<g clip-path="url(#clip0_49_447)">
<path d="M11.8467 6.92123L11.1098 6.41794L11.3144 6.25444C11.4957 6.10964 11.4894 5.83097 11.3008 5.69477L4.54076 0.812858C4.23713 0.593553 3.81553 0.650553 3.58097 0.942514L1.3593 3.70781C1.10665 4.02237 1.17042 4.48584 1.49883 4.72038L3.18773 5.92648L2.50969 6.8898C2.39747 7.04925 2.43654 7.26968 2.59662 7.38091L2.8383 7.54877C2.44395 7.9293 1.91508 8.1446 1.36268 8.1446H0.703125V7.38288C0.703125 7.18872 0.545719 7.03132 0.351563 7.03132C0.157406 7.03132 0 7.18872 0 7.38288V10.9688C0 11.163 0.157406 11.3204 0.351563 11.3204C0.545719 11.3204 0.703125 11.163 0.703125 10.9688V10.254H1.17966C2.44158 10.254 3.67533 9.72326 4.55163 8.73874L4.90327 8.98296C5.06377 9.09443 5.28443 9.05353 5.39438 8.89212L6.03129 7.95712L7.47942 8.99128C7.60723 9.08255 7.78029 9.07805 7.90317 8.97984L8.42787 8.56064L9.79216 9.5426C9.94371 9.65168 10.154 9.62323 10.2711 9.47803L11.922 7.43236C12.0508 7.27282 12.0162 7.03694 11.8467 6.92123ZM1.17966 9.55083H0.703125V8.8477H1.36266C2.14444 8.8477 2.89073 8.52358 3.42413 7.95562L3.96919 8.33419C3.25409 9.10155 2.23643 9.55083 1.17966 9.55083ZM5.01295 8.20305L3.28826 7.00521L3.75994 6.33508L5.45895 7.5484L5.01295 8.20305ZM7.67182 8.26467L1.90744 4.14818L4.1291 1.38288L10.514 5.9939L7.67182 8.26467ZM9.93286 8.77753L8.99829 8.10485L10.5352 6.87696L11.1357 7.28709L9.93286 8.77753Z" fill="#364152"/>
<path d="M8.81253 6.00006C9.00669 6.00006 9.16409 5.84266 9.16409 5.64849C9.16409 5.45433 9.00669 5.29693 8.81253 5.29693C8.61837 5.29693 8.46097 5.45433 8.46097 5.64849C8.46097 5.84266 8.61837 6.00006 8.81253 6.00006Z" fill="#364152"/>
</g>
<defs>
<clipPath id="clip0_49_447">
<rect width="12" height="12" fill="white"/>
</clipPath>
</defs>
</svg>
